<svg width="2863" height="2923" viewBox="0 0 2863 2923" fill="none" xmlns="http://www.w3.org/2000/svg">
<rect width="2863" height="2923" rx="1000" fill="#1A1A1A"/>
<g clip-path="url(#clip0_1_89)">
<g clip-path="url(#clip1_1_89)">
<g clip-path="url(#clip2_1_89)">
<g clip-path="url(#clip3_1_89)">
<g clip-path="url(#clip4_1_89)">
<g clip-path="url(#clip5_1_89)">
<g clip-path="url(#clip6_1_89)">
<g clip-path="url(#clip7_1_89)">
<path d="M1744.42 961.037H1682.33C1678.3 949.56 1670.8 939.619 1660.87 932.586C1650.94 925.554 1639.07 921.777 1626.91 921.777C1614.74 921.777 1602.87 925.554 1592.94 932.586C1583.01 939.619 1575.51 949.56 1571.48 961.037H1509.39C1504.19 961.037 1499.21 963.101 1495.54 966.774C1491.86 970.447 1489.8 975.429 1489.8 980.623V1058.97C1489.8 1064.16 1491.86 1069.14 1495.54 1072.82C1499.21 1076.49 1504.19 1078.55 1509.39 1078.55C1514.58 1078.55 1519.56 1080.62 1523.24 1084.29C1526.91 1087.96 1528.97 1092.95 1528.97 1098.14C1528.97 1103.34 1526.91 1108.32 1523.24 1111.99C1519.56 1115.66 1514.58 1117.73 1509.39 1117.73C1504.19 1117.73 1499.21 1119.79 1495.54 1123.46C1491.86 1127.14 1489.8 1132.12 1489.8 1137.31V1215.66C1489.8 1220.85 1491.86 1225.84 1495.54 1229.51C1499.21 1233.18 1504.19 1235.25 1509.39 1235.25H1571.48C1575.51 1246.72 1583.01 1256.66 1592.94 1263.7C1602.87 1270.73 1614.74 1274.5 1626.91 1274.5C1639.07 1274.5 1650.94 1270.73 1660.87 1263.7C1670.8 1256.66 1678.3 1246.72 1682.33 1235.25H1744.42C1749.62 1235.25 1754.6 1233.18 1758.27 1229.51C1761.95 1225.84 1764.01 1220.85 1764.01 1215.66V980.623C1764.01 975.429 1761.95 970.447 1758.27 966.774C1754.6 963.101 1749.62 961.037 1744.42 961.037ZM1724.84 1196.07H1666.08C1660.88 1196.07 1655.9 1198.14 1652.23 1201.81C1648.56 1205.48 1646.49 1210.46 1646.49 1215.66C1646.49 1220.85 1644.43 1225.84 1640.75 1229.51C1637.08 1233.18 1632.1 1235.25 1626.91 1235.25C1621.71 1235.25 1616.73 1233.18 1613.06 1229.51C1609.38 1225.84 1607.32 1220.85 1607.32 1215.66C1607.32 1210.46 1605.26 1205.48 1601.58 1201.81C1597.91 1198.14 1592.93 1196.07 1587.73 1196.07H1528.97V1153.57C1540.45 1149.53 1550.39 1142.03 1557.42 1132.1C1564.46 1122.17 1568.23 1110.31 1568.23 1098.14C1568.23 1085.97 1564.46 1074.11 1557.42 1064.18C1550.39 1054.25 1540.45 1046.75 1528.97 1042.71V1000.21H1587.73C1592.93 1000.21 1597.91 998.146 1601.58 994.473C1605.26 990.8 1607.32 985.818 1607.32 980.623C1607.32 975.429 1609.38 970.447 1613.06 966.774C1616.73 963.101 1621.71 961.037 1626.91 961.037C1632.1 961.037 1637.08 963.101 1640.75 966.774C1644.43 970.447 1646.49 975.429 1646.49 980.623C1646.49 985.818 1648.56 990.8 1652.23 994.473C1655.9 998.146 1660.88 1000.21 1666.08 1000.21H1724.84V1196.07Z" fill="white"/>
<path d="M1646.49 1395.27V1333.18C1646.49 1327.98 1644.43 1323 1640.75 1319.33C1637.08 1315.65 1632.1 1313.59 1626.9 1313.59H1548.56C1543.37 1313.59 1538.38 1315.65 1534.71 1319.33C1531.04 1323 1528.97 1327.98 1528.97 1333.18C1528.97 1338.37 1526.91 1343.35 1523.24 1347.03C1519.56 1350.7 1514.58 1352.76 1509.39 1352.76C1504.19 1352.76 1499.21 1350.7 1495.54 1347.03C1491.86 1343.35 1489.8 1338.37 1489.8 1333.18C1489.8 1327.98 1487.74 1323 1484.06 1319.33C1480.39 1315.65 1475.41 1313.59 1470.21 1313.59H1391.87C1386.68 1313.59 1381.69 1315.65 1378.02 1319.33C1374.35 1323 1372.28 1327.98 1372.28 1333.18V1395.27C1360.81 1399.3 1350.86 1406.8 1343.83 1416.73C1336.8 1426.66 1333.02 1438.53 1333.02 1450.69C1333.02 1462.86 1336.8 1474.73 1343.83 1484.66C1350.86 1494.59 1360.81 1502.09 1372.28 1506.12V1568.21C1372.28 1573.41 1374.35 1578.39 1378.02 1582.06C1381.69 1585.73 1386.68 1587.8 1391.87 1587.8H1626.9C1632.1 1587.8 1637.08 1585.73 1640.75 1582.06C1644.43 1578.39 1646.49 1573.41 1646.49 1568.21V1506.12C1657.97 1502.09 1667.91 1494.59 1674.94 1484.66C1681.97 1474.73 1685.75 1462.86 1685.75 1450.69C1685.75 1438.53 1681.97 1426.66 1674.94 1416.73C1667.91 1406.8 1657.97 1399.3 1646.49 1395.27ZM1626.9 1470.28C1621.71 1470.28 1616.73 1472.34 1613.06 1476.02C1609.38 1479.69 1607.32 1484.67 1607.32 1489.87V1548.63H1411.46V1489.87C1411.46 1484.67 1409.39 1479.69 1405.72 1476.02C1402.05 1472.34 1397.06 1470.28 1391.87 1470.28C1386.68 1470.28 1381.69 1468.22 1378.02 1464.54C1374.35 1460.87 1372.28 1455.89 1372.28 1450.69C1372.28 1445.5 1374.35 1440.52 1378.02 1436.84C1381.69 1433.17 1386.68 1431.11 1391.87 1431.11C1397.06 1431.11 1402.05 1429.04 1405.72 1425.37C1409.39 1421.7 1411.46 1416.72 1411.46 1411.52V1352.76H1453.96C1458 1364.24 1465.5 1374.18 1475.43 1381.21C1485.35 1388.25 1497.22 1392.02 1509.39 1392.02C1521.55 1392.02 1533.42 1388.25 1543.35 1381.21C1553.28 1374.18 1560.78 1364.24 1564.82 1352.76H1607.32V1411.52C1607.32 1416.72 1609.38 1421.7 1613.06 1425.37C1616.73 1429.04 1621.71 1431.11 1626.9 1431.11C1632.1 1431.11 1637.08 1433.17 1640.75 1436.84C1644.43 1440.52 1646.49 1445.5 1646.49 1450.69C1646.49 1455.89 1644.43 1460.87 1640.75 1464.54C1637.08 1468.22 1632.1 1470.28 1626.9 1470.28Z" fill="white"/>
<path d="M1391.87 1313.59H1329.78C1325.74 1302.11 1318.24 1292.17 1308.31 1285.14C1298.39 1278.11 1286.52 1274.33 1274.35 1274.33C1262.19 1274.33 1250.32 1278.11 1240.39 1285.14C1230.46 1292.17 1222.96 1302.11 1218.92 1313.59H1156.83C1151.64 1313.59 1146.66 1315.65 1142.98 1319.33C1139.31 1323 1137.25 1327.98 1137.25 1333.18V1568.21C1137.25 1573.41 1139.31 1578.39 1142.98 1582.06C1146.66 1585.73 1151.64 1587.8 1156.83 1587.8H1218.92C1222.96 1599.28 1230.46 1609.22 1240.39 1616.25C1250.32 1623.28 1262.19 1627.06 1274.35 1627.06C1286.52 1627.06 1298.39 1623.28 1308.31 1616.25C1318.24 1609.22 1325.74 1599.28 1329.78 1587.8H1391.87C1397.06 1587.8 1402.05 1585.73 1405.72 1582.06C1409.39 1578.39 1411.46 1573.41 1411.46 1568.21V1489.87C1411.46 1484.67 1409.39 1479.69 1405.72 1476.02C1402.05 1472.34 1397.06 1470.28 1391.87 1470.28C1386.68 1470.28 1381.69 1468.22 1378.02 1464.54C1374.35 1460.87 1372.28 1455.89 1372.28 1450.69C1372.28 1445.5 1374.35 1440.52 1378.02 1436.84C1381.69 1433.17 1386.68 1431.11 1391.87 1431.11C1397.06 1431.11 1402.05 1429.04 1405.72 1425.37C1409.39 1421.7 1411.46 1416.72 1411.46 1411.52V1333.18C1411.46 1327.98 1409.39 1323 1405.72 1319.33C1402.05 1315.65 1397.06 1313.59 1391.87 1313.59ZM1372.28 1395.26C1360.81 1399.3 1350.87 1406.8 1343.83 1416.73C1336.8 1426.66 1333.02 1438.53 1333.02 1450.69C1333.02 1462.86 1336.8 1474.73 1343.83 1484.66C1350.87 1494.59 1360.81 1502.09 1372.28 1506.12V1548.63H1313.52C1308.33 1548.63 1303.35 1550.69 1299.67 1554.36C1296 1558.04 1293.94 1563.02 1293.94 1568.21C1293.94 1573.41 1291.87 1578.39 1288.2 1582.06C1284.53 1585.73 1279.55 1587.8 1274.35 1587.8C1269.16 1587.8 1264.18 1585.73 1260.5 1582.06C1256.83 1578.39 1254.77 1573.41 1254.77 1568.21C1254.77 1563.02 1252.7 1558.04 1249.03 1554.36C1245.36 1550.69 1240.37 1548.63 1235.18 1548.63H1176.42V1352.76H1235.18C1240.37 1352.76 1245.36 1350.7 1249.03 1347.03C1252.7 1343.35 1254.77 1338.37 1254.77 1333.18C1254.77 1327.98 1256.83 1323 1260.5 1319.33C1264.18 1315.65 1269.16 1313.59 1274.35 1313.59C1279.55 1313.59 1284.53 1315.65 1288.2 1319.33C1291.87 1323 1293.94 1327.98 1293.94 1333.18C1293.94 1338.37 1296 1343.35 1299.67 1347.03C1303.35 1350.7 1308.33 1352.76 1313.52 1352.76H1372.28V1395.26Z" fill="white"/>
<path d="M1411.46 1160.23V1098.14C1411.46 1092.95 1409.39 1087.96 1405.72 1084.29C1402.05 1080.62 1397.06 1078.55 1391.87 1078.55H1156.83C1151.64 1078.55 1146.66 1080.62 1142.98 1084.29C1139.31 1087.96 1137.25 1092.95 1137.25 1098.14V1160.23C1125.77 1164.27 1115.83 1171.77 1108.8 1181.7C1101.77 1191.63 1097.99 1203.49 1097.99 1215.66C1097.99 1227.83 1101.77 1239.69 1108.8 1249.62C1115.83 1259.55 1125.77 1267.05 1137.25 1271.09V1333.18C1137.25 1338.37 1139.31 1343.35 1142.98 1347.03C1146.66 1350.7 1151.64 1352.76 1156.83 1352.76H1235.18C1240.37 1352.76 1245.36 1350.7 1249.03 1347.03C1252.7 1343.35 1254.77 1338.37 1254.77 1333.18C1254.77 1327.98 1256.83 1323 1260.5 1319.33C1264.18 1315.65 1269.16 1313.59 1274.35 1313.59C1279.55 1313.59 1284.53 1315.65 1288.2 1319.33C1291.87 1323 1293.94 1327.98 1293.94 1333.18C1293.94 1338.37 1296 1343.35 1299.68 1347.03C1303.35 1350.7 1308.33 1352.76 1313.52 1352.76H1391.87C1397.06 1352.76 1402.05 1350.7 1405.72 1347.03C1409.39 1343.35 1411.46 1338.37 1411.46 1333.18V1271.09C1422.93 1267.05 1432.87 1259.55 1439.91 1249.62C1446.94 1239.69 1450.72 1227.83 1450.72 1215.66C1450.72 1203.49 1446.94 1191.63 1439.91 1181.7C1432.87 1171.77 1422.93 1164.27 1411.46 1160.23ZM1391.87 1235.24C1386.68 1235.24 1381.69 1237.31 1378.02 1240.98C1374.35 1244.65 1372.28 1249.64 1372.28 1254.83V1313.59H1329.78C1325.74 1302.11 1318.24 1292.17 1308.31 1285.14C1298.39 1278.11 1286.52 1274.33 1274.35 1274.33C1262.19 1274.33 1250.32 1278.11 1240.39 1285.14C1230.46 1292.17 1222.96 1302.11 1218.92 1313.59H1176.42V1254.83C1176.42 1249.64 1174.36 1244.65 1170.68 1240.98C1167.01 1237.31 1162.03 1235.24 1156.83 1235.24C1151.64 1235.24 1146.66 1233.18 1142.98 1229.51C1139.31 1225.84 1137.25 1220.85 1137.25 1215.66C1137.25 1210.46 1139.31 1205.48 1142.98 1201.81C1146.66 1198.14 1151.64 1196.07 1156.83 1196.07C1162.03 1196.07 1167.01 1194.01 1170.68 1190.34C1174.36 1186.66 1176.42 1181.68 1176.42 1176.49V1117.73H1372.28V1176.49C1372.28 1181.68 1374.35 1186.66 1378.02 1190.34C1381.69 1194.01 1386.68 1196.07 1391.87 1196.07C1397.06 1196.07 1402.05 1198.14 1405.72 1201.81C1409.39 1205.48 1411.46 1210.46 1411.46 1215.66C1411.46 1220.85 1409.39 1225.84 1405.72 1229.51C1402.05 1233.18 1397.06 1235.24 1391.87 1235.24Z" fill="white"/>
</g>
</g>
<path d="M560.245 941.812L585.178 950.114C577.457 955.332 571.902 963.024 568.518 973.197C565.629 981.878 565.098 989.183 566.941 995.112C568.783 1001.04 572.841 1005.05 579.106 1007.14C591.271 1011.19 600.361 1004.19 606.383 986.122L618.563 949.554L565.693 931.941C543.356 924.5 528.559 931.669 521.312 953.447L506.552 997.75L483.289 990L498.508 944.307C504.465 926.428 513.477 914.163 525.549 907.503C537.571 900.829 551.901 900.262 568.525 905.797L649.947 932.923L629.373 994.703C624.147 1010.4 616.491 1021.68 606.419 1028.54C596.325 1035.44 584.547 1036.65 571.084 1032.17C557.571 1027.66 548.94 1019.35 545.191 1007.21C541.427 995.126 542.008 981.699 546.919 966.931C549.686 958.616 554.13 950.243 560.245 941.812Z" fill="white"/>
<path d="M652.349 809.643L525.197 732.17L538.832 709.79L665.984 787.255C671.962 790.897 677.246 793.14 681.827 793.986C686.458 794.854 690.443 794.28 693.805 792.251C697.225 790.208 700.057 787.921 702.286 785.384C704.494 782.889 707.01 779.319 709.835 774.688L730.782 787.441C719.448 806.044 707.856 817.034 695.992 820.41C684.156 823.744 669.611 820.159 652.349 809.643Z" fill="white"/>
<path d="M848.449 619.32L719.985 493.524L738.373 474.742L884.357 617.7L836.377 666.691C821.552 681.832 804.669 689.416 785.737 689.445C766.804 689.402 749.979 682.169 735.255 667.752C720.81 653.608 713.469 636.826 713.233 617.414C713.032 598.037 719.541 581.592 732.76 568.093C741.183 559.49 751.162 553.469 762.682 550.028L781.457 568.415C769.643 570.48 759.249 576.086 750.28 585.255C742.094 593.613 738.287 603.693 738.861 615.485C739.398 627.314 744.667 638.131 754.668 647.924C764.811 657.852 775.629 663.071 787.128 663.573C798.626 664.075 809.2 659.394 818.856 649.537L848.449 619.32Z" fill="white"/>
<path d="M930.803 415.801L1005.29 534.436L983.529 548.099L922.079 450.232L901.877 462.921L898.723 435.945L930.803 415.801ZM892.572 405.306C888.673 403.879 885.683 401.513 883.604 398.194C881.547 394.918 880.737 391.241 881.174 387.147C881.597 383.126 884.049 379.706 888.522 376.896C892.959 374.115 897.096 373.391 900.945 374.731C904.781 376.136 907.72 378.48 909.777 381.756C911.856 385.076 912.688 388.739 912.265 392.768C911.827 396.854 909.39 400.295 904.96 403.076C900.479 405.886 896.357 406.632 892.572 405.306Z" fill="white"/>
<path d="M1153.57 540.049L1128.75 548.486L1084.77 419.213C1081.5 409.621 1080.16 399.994 1080.76 390.33C1081.4 380.653 1083.7 371.699 1087.67 363.469C1091.64 355.239 1097.17 347.935 1104.25 341.547C1111.31 335.11 1119.53 330.299 1128.88 327.109C1138.29 323.912 1147.71 322.722 1157.14 323.547C1166.55 324.321 1175.41 326.794 1183.7 330.952C1192 335.11 1199.33 340.78 1205.7 347.97C1212.03 355.175 1216.83 363.569 1220.09 373.161C1223.35 382.753 1224.72 392.316 1224.2 401.858C1223.61 411.363 1221.35 420.303 1217.42 428.669C1213.47 436.991 1207.96 444.347 1200.88 450.734C1193.82 457.171 1185.49 462.017 1175.9 465.286C1164.13 469.294 1152.23 470.24 1140.19 468.132L1131.75 443.321C1143.04 446.87 1154.87 446.547 1167.24 442.332C1173.87 440.074 1179.5 436.87 1184.12 432.705C1188.75 428.54 1192.29 423.801 1194.72 418.482C1197.1 413.17 1198.35 407.349 1198.46 400.997C1198.59 394.696 1197.53 388.237 1195.28 381.606C1193.02 374.982 1189.92 369.211 1185.97 364.301C1182.01 359.34 1177.51 355.469 1172.48 352.68C1167.39 349.863 1161.84 348.214 1155.83 347.727C1149.81 347.189 1143.46 348.056 1136.78 350.329C1130.34 352.523 1124.88 355.619 1120.41 359.62C1115.91 363.577 1112.46 368.243 1110.04 373.62C1107.66 378.932 1106.42 384.753 1106.3 391.097C1106.17 397.399 1107.26 403.951 1109.58 410.768L1153.57 540.049Z" fill="white"/>
<path d="M1366.1 423.779L1340.47 425.615L1334.8 346.157C1333.2 323.848 1336.27 308.119 1344.01 298.979C1347.75 294.391 1352.48 290.814 1358.19 288.248C1363.84 285.732 1368.83 284.126 1373.15 283.43C1377.51 282.728 1383.48 282.104 1391.05 281.559L1416.68 279.731L1418.43 304.191L1387.53 306.399C1383.67 306.671 1380.68 306.987 1378.54 307.331C1376.4 307.682 1373.94 308.542 1371.14 309.919C1368.3 311.252 1365.89 313.267 1363.92 315.962C1360.6 320.908 1359.43 330.364 1360.42 344.329L1366.1 423.779Z" fill="white"/>
<path d="M1609.64 356.53L1605.59 382.495C1599.16 375.749 1590.65 371.548 1580.07 369.899C1571.02 368.494 1563.73 369.19 1558.19 371.993C1552.65 374.796 1549.38 379.462 1548.36 385.993C1546.39 398.667 1554.8 406.467 1573.62 409.392L1611.7 415.328L1620.28 360.265C1623.9 337.002 1614.37 323.604 1591.69 320.07L1545.55 312.887L1549.32 288.656L1596.91 296.069C1615.53 298.965 1629.13 305.818 1637.7 316.614C1646.28 327.36 1649.22 341.389 1646.53 358.702L1633.32 443.508L1568.98 433.486C1552.63 430.941 1540.24 425.271 1531.8 416.482C1523.31 407.679 1520.16 396.266 1522.34 382.244C1524.54 368.172 1531.3 358.279 1542.64 352.558C1553.93 346.838 1567.27 345.175 1582.65 347.569C1591.31 348.917 1600.31 351.906 1609.64 356.53Z" fill="white"/>
<path d="M1788.71 374.552L1764.75 364.487L1833.13 336.515L1822.38 362.1L1858.72 377.376L1849.22 399.986L1812.87 384.71L1789.58 440.138C1786.94 446.411 1785.8 452.038 1786.15 457.014C1786.48 462.039 1788.25 466.211 1791.48 469.53C1794.73 472.914 1797.98 475.609 1801.23 477.609C1804.52 479.631 1808.76 481.731 1813.95 483.911L1804.45 506.521C1783.82 497.854 1770.23 487.495 1763.67 475.444C1757.16 463.415 1757.74 448.261 1765.41 429.988L1788.71 374.552Z" fill="white"/>
<path d="M2004.1 536.687L1988.73 557.999C1986.05 549.074 1980.37 541.475 1971.68 535.203C1964.25 529.848 1957.44 527.167 1951.23 527.16C1945.03 527.145 1939.99 529.819 1936.12 535.181C1928.62 545.583 1932.59 556.351 1948.03 567.484L1979.29 590.036L2011.89 544.838C2025.66 525.74 2023.24 509.481 2004.62 496.054L1966.75 468.742L1981.09 448.849L2020.15 477.022C2035.44 488.047 2044.46 500.313 2047.2 513.819C2049.98 527.289 2046.24 541.131 2036 555.34L1985.79 624.955L1932.98 586.861C1919.56 577.183 1911.08 566.516 1907.54 554.845C1903.96 543.153 1906.33 531.554 1914.63 520.041C1922.96 508.492 1933.48 502.736 1946.18 502.786C1958.84 502.807 1971.48 507.367 1984.1 516.471C1991.21 521.597 1997.87 528.335 2004.1 536.687Z" fill="white"/>
<path d="M2058.01 698.872L2169.25 613.729L2247.47 715.926C2255.89 726.923 2260.51 737.26 2261.32 746.938C2262.21 756.795 2260.13 765.283 2255.11 772.401C2250.07 779.584 2242.91 786.739 2233.62 793.843L2168.73 843.508L2153.1 823.106L2218 773.441C2230.05 764.222 2235.23 754.487 2233.55 744.242C2232.71 739.031 2227.97 730.794 2219.34 719.518L2212.07 710.019L2120.31 780.258L2104.69 759.849L2196.45 689.61L2165.39 649.035L2073.63 719.274L2058.01 698.872Z" fill="white"/>
<path d="M2316.21 983.197L2291.53 992.251C2294.31 983.355 2293.86 973.878 2290.16 963.813C2287.01 955.218 2282.87 949.182 2277.73 945.698C2272.59 942.214 2266.92 941.612 2260.72 943.884C2248.69 948.3 2245.94 959.447 2252.5 977.326L2265.78 1013.51L2318.09 994.309C2340.19 986.201 2347.29 971.369 2339.38 949.82L2323.3 905.983L2346.32 897.538L2362.91 942.751C2369.41 960.444 2370.01 975.656 2364.72 988.387C2359.48 1001.1 2348.63 1010.48 2332.19 1016.51L2251.61 1046.08L2229.18 984.946C2223.48 969.419 2222.43 955.827 2226.03 944.178C2229.62 932.486 2238.07 924.199 2251.39 919.31C2264.76 914.406 2276.69 915.525 2287.2 922.672C2297.68 929.776 2305.6 940.629 2310.95 955.246C2313.97 963.469 2315.72 972.788 2316.21 983.197Z" fill="white"/>
<path d="M583.493 1601.03L558.553 1609.34C561.607 1600.54 561.435 1591.05 558.052 1580.87C555.163 1572.19 551.198 1566.03 546.166 1562.39C541.184 1558.74 535.535 1557.96 529.219 1560.06C517.054 1564.11 513.978 1575.18 519.993 1593.24L532.173 1629.81L585.042 1612.2C607.38 1604.76 614.921 1590.15 607.666 1568.37L592.913 1524.07L616.176 1516.32L631.395 1562.01C637.366 1579.94 637.531 1595.15 631.897 1607.66C626.226 1620.22 615.086 1629.28 598.462 1634.82L517.032 1661.94L496.451 1600.16C491.225 1584.47 490.587 1570.85 494.537 1559.32C498.472 1547.74 507.168 1539.71 520.631 1535.22C534.144 1530.72 546.037 1532.21 556.317 1539.66C566.575 1547.08 574.167 1558.17 579.085 1572.94C581.852 1581.25 583.321 1590.62 583.493 1601.03Z" fill="white"/>
<path d="M627.38 1756.16L754.532 1678.68L768.167 1701.07L641.015 1778.54C635.036 1782.18 630.62 1785.84 627.767 1789.53C624.871 1793.25 623.566 1797.08 623.86 1801.03C624.083 1804.97 624.807 1808.51 626.032 1811.66C627.237 1814.76 629.266 1818.65 632.119 1823.34L611.179 1836.09C599.824 1817.46 595.358 1802.09 597.795 1790C600.254 1777.96 610.118 1766.67 627.38 1756.16Z" fill="white"/>
<path d="M783.386 1994.97L911.842 1869.16L930.237 1887.95L784.253 2030.9L736.273 1981.91C721.448 1966.77 714.215 1949.73 714.587 1930.8C715.025 1911.88 722.609 1895.2 737.334 1880.78C751.815 1866.6 768.74 1859.62 788.117 1859.82C807.494 1860.02 823.796 1866.88 837.022 1880.38C845.481 1889.01 851.295 1899.12 854.456 1910.67L835.681 1929.06C833.903 1917.24 828.505 1906.73 819.502 1897.53C811.351 1889.21 801.358 1885.19 789.515 1885.49C777.672 1885.78 766.754 1890.82 756.754 1900.61C746.61 1910.54 741.169 1921.25 740.423 1932.74C739.678 1944.22 744.137 1954.89 753.793 1964.75L783.386 1994.97Z" fill="white"/>
<path d="M1005.28 2016.16L930.789 2134.79L909.089 2121.17L970.539 2023.3L950.266 2010.57L973.192 1996.01L1005.28 2016.16ZM998.117 1977.16C997.73 1972.99 998.569 1969.27 1000.63 1965.99C1002.71 1962.67 1005.67 1960.35 1009.52 1959.01C1013.36 1957.6 1017.51 1958.3 1021.98 1961.11C1026.42 1963.89 1028.86 1967.33 1029.29 1971.42C1029.72 1975.44 1028.89 1979.11 1026.8 1982.43C1024.74 1985.71 1021.8 1988.04 1017.97 1989.46C1014.1 1990.84 1009.94 1990.14 1005.51 1987.35C1001.03 1984.54 998.569 1981.14 998.117 1977.16Z" fill="white"/>
<path d="M1065.57 2269.11L1040.76 2260.66L1084.74 2131.38C1088.01 2121.79 1092.82 2113.35 1099.18 2106.05C1105.59 2098.77 1112.87 2093.09 1121.05 2088.99C1129.21 2084.89 1138.06 2082.44 1147.58 2081.65C1157.08 2080.91 1166.55 2082.13 1175.95 2085.33C1185.31 2088.51 1193.49 2093.29 1200.48 2099.65C1207.45 2106.05 1212.95 2113.43 1216.99 2121.78C1221.06 2130.15 1223.42 2139.12 1224.04 2148.69C1224.71 2158.27 1223.41 2167.86 1220.15 2177.45C1216.88 2187.05 1212.12 2195.43 1205.84 2202.6C1199.61 2209.84 1192.36 2215.56 1184.1 2219.79C1175.9 2223.98 1167.05 2226.45 1157.54 2227.19C1148.01 2227.99 1138.48 2226.75 1128.94 2223.51C1117.12 2219.49 1107.09 2212.97 1098.83 2203.96L1107.27 2179.15C1114.06 2188.85 1123.63 2195.8 1136 2200.01C1142.62 2202.26 1149.05 2203.15 1155.26 2202.68C1161.46 2202.21 1167.16 2200.6 1172.33 2197.86C1177.47 2195.06 1182.02 2191.2 1185.96 2186.29C1189.91 2181.38 1193.01 2175.61 1195.26 2168.99C1197.51 2162.36 1198.59 2155.88 1198.47 2149.53C1198.34 2143.22 1197.13 2137.44 1194.84 2132.16C1192.52 2126.82 1189.13 2122.13 1184.66 2118.08C1180.22 2113.98 1174.68 2110.8 1168.05 2108.54C1161.56 2106.33 1155.33 2105.45 1149.33 2105.9C1143.36 2106.29 1137.78 2107.88 1132.59 2110.67C1127.46 2113.42 1122.92 2117.26 1118.98 2122.17C1115.02 2127.13 1111.88 2133.02 1109.56 2139.83L1065.57 2269.11Z" fill="white"/>
<path d="M1356.11 2266.55L1330.47 2264.71L1336.15 2185.26C1337.75 2162.9 1343.03 2147.75 1351.99 2139.8C1356.35 2135.84 1361.53 2132.99 1367.54 2131.27C1373.5 2129.58 1378.67 2128.7 1383.04 2128.62C1387.46 2128.54 1393.46 2128.78 1401.02 2129.32L1426.66 2131.15L1424.91 2155.61L1394 2153.4C1390.15 2153.12 1387.13 2153 1384.98 2153.05C1382.81 2153.09 1380.25 2153.57 1377.29 2154.49C1374.28 2155.45 1371.61 2157.12 1369.28 2159.51C1365.28 2163.88 1362.79 2173.08 1361.79 2187.09L1356.11 2266.55Z" fill="white"/>
<path d="M1605.85 2169.85L1609.9 2195.82C1601.72 2191.35 1592.33 2189.94 1581.74 2191.58C1572.7 2192.99 1565.97 2195.87 1561.54 2200.23C1557.11 2204.54 1555.41 2209.98 1556.43 2216.55C1558.4 2229.23 1568.8 2234.09 1587.61 2231.16L1625.7 2225.23L1617.12 2170.18C1613.5 2146.92 1600.35 2137.05 1577.66 2140.58L1531.53 2147.76L1527.76 2123.53L1575.35 2116.13C1594.02 2113.22 1609.05 2115.59 1620.44 2123.22C1631.89 2130.9 1638.96 2143.4 1641.65 2160.71L1654.86 2245.51L1590.51 2255.53C1574.17 2258.07 1560.63 2256.44 1549.92 2250.63C1539.16 2244.83 1532.69 2234.91 1530.5 2220.88C1528.31 2206.81 1531.75 2195.33 1540.82 2186.44C1549.84 2177.56 1562.04 2171.91 1577.42 2169.52C1586.08 2168.17 1595.56 2168.28 1605.85 2169.85Z" fill="white"/>
<path d="M1753.43 2092.13L1729.47 2102.2L1757.34 2033.78L1768.09 2059.36L1804.44 2044.09L1813.94 2066.7L1777.59 2081.97L1800.89 2137.4C1803.53 2143.68 1806.75 2148.43 1810.54 2151.66C1814.36 2154.94 1818.58 2156.59 1823.21 2156.62C1827.9 2156.66 1832.1 2156.23 1835.8 2155.3C1839.55 2154.36 1844.02 2152.81 1849.21 2150.63L1858.71 2173.23C1838.08 2181.9 1821.18 2184.36 1807.97 2180.62C1794.82 2176.85 1784.4 2165.83 1776.73 2147.56L1753.43 2092.13Z" fill="white"/>
<path d="M1989.75 1994.04L2005.13 2015.36C1995.82 2015.08 1986.81 2018.07 1978.11 2024.34C1970.68 2029.69 1965.99 2035.31 1964.02 2041.2C1962.02 2047.05 1962.97 2052.67 1966.86 2058.07C1974.36 2068.47 1985.84 2068.1 2001.28 2056.96L2032.54 2034.42L1999.95 1989.23C1986.17 1970.13 1969.98 1967.3 1951.36 1980.72L1913.49 2008.04L1899.15 1988.14L1938.21 1959.98C1953.54 1948.92 1968 1944.22 1981.62 1945.86C1995.31 1947.52 2007.28 1955.45 2017.52 1969.67L2067.73 2039.28L2014.91 2077.37C2001.49 2087.05 1988.69 2091.72 1976.5 2091.39C1964.28 2091.1 1954.02 2085.19 1945.71 2073.68C1937.38 2062.13 1935.24 2050.33 1939.3 2038.3C1943.31 2026.3 1951.63 2015.74 1964.25 2006.63C1971.36 2001.51 1979.86 1997.31 1989.75 1994.04Z" fill="white"/>
<path d="M2169.25 1936.89L2058.01 1851.74L2136.29 1749.49C2144.67 1738.53 2153.43 1731.4 2162.56 1728.08C2171.81 1724.62 2180.55 1724.39 2188.81 1727.37C2197.03 1730.4 2205.79 1735.47 2215.08 1742.58L2279.96 1792.25L2264.34 1812.65L2199.46 1762.99C2187.41 1753.76 2176.68 1751.28 2167.26 1755.53C2162.42 1757.75 2155.69 1764.49 2147.05 1775.76L2139.79 1785.26L2231.54 1855.51L2215.92 1875.91L2124.16 1805.67L2093.1 1846.25L2184.86 1916.48L2169.25 1936.89Z" fill="white"/>
<path d="M2293.2 1558.97L2317.87 1568.02C2309.99 1573 2304.21 1580.52 2300.52 1590.59C2297.36 1599.18 2296.62 1606.47 2298.28 1612.45C2299.9 1618.41 2303.83 1622.54 2310.08 1624.83C2322.11 1629.25 2331.41 1622.52 2337.98 1604.65L2351.26 1568.47L2298.95 1549.27C2276.84 1541.16 2261.84 1547.88 2253.93 1569.43L2237.85 1613.26L2214.82 1604.81L2231.42 1559.6C2237.93 1541.86 2247.28 1529.86 2259.48 1523.6C2271.75 1517.31 2286.11 1517.19 2302.56 1523.22L2383.13 1552.79L2360.7 1613.92C2355 1629.45 2347.01 1640.5 2336.73 1647.05C2326.44 1653.64 2314.63 1654.5 2301.3 1649.61C2287.93 1644.7 2279.55 1636.12 2276.18 1623.89C2272.78 1611.69 2273.76 1598.29 2279.12 1583.68C2282.14 1575.45 2286.83 1567.22 2293.2 1558.97Z" fill="white"/>
<path d="M433.581 1275.29C433.581 1232.19 468.529 1197.24 511.634 1197.24C554.739 1197.24 589.687 1232.19 589.68 1275.29C589.68 1318.4 554.732 1353.35 511.634 1353.35C468.529 1353.35 433.581 1318.4 433.581 1275.29Z" fill="white"/>
<path d="M2272.31 1275.29C2272.31 1232.19 2307.26 1197.24 2350.37 1197.24C2393.47 1197.24 2428.42 1232.19 2428.42 1275.29C2428.42 1318.4 2393.47 1353.35 2350.37 1353.35C2307.26 1353.35 2272.31 1318.4 2272.31 1275.29Z" fill="white"/>
</g>
<path d="M544.2 2452V2327.4H621.8V2345.6H564.4V2375.8H611V2394H564.4V2452H544.2ZM648.8 2359H672.2L672 2385L669.4 2383.4C669.933 2379.27 671.067 2375.6 672.8 2372.4C674.667 2369.2 676.933 2366.4 679.6 2364C682.4 2361.6 685.4 2359.8 688.6 2358.6C691.933 2357.4 695.333 2356.8 698.8 2356.8C704 2356.8 708.667 2357.67 712.8 2359.4C717.067 2361 721 2363.67 724.6 2367.4L715 2386.4L714.4 2388L712.6 2387.2C712.2 2386.13 711.8 2385.07 711.4 2384C711 2382.8 710 2381.47 708.4 2380C706.533 2378.53 704.533 2377.4 702.4 2376.6C700.4 2375.8 698.2 2375.4 695.8 2375.4C692.6 2375.4 689.533 2375.93 686.6 2377C683.667 2378.07 681.067 2379.73 678.8 2382C676.667 2384.27 674.933 2387.2 673.6 2390.8C672.4 2394.27 671.8 2398.4 671.8 2403.2V2452H648.8V2359ZM780.8 2454C772.533 2454 765 2452 758.2 2448C751.533 2443.87 746.267 2438.13 742.4 2430.8C738.533 2423.47 736.6 2415 736.6 2405.4C736.6 2396.2 738.533 2387.93 742.4 2380.6C746.267 2373.27 751.533 2367.47 758.2 2363.2C765 2358.93 772.533 2356.8 780.8 2356.8C789.2 2356.8 796.733 2358.93 803.4 2363.2C810.2 2367.47 815.533 2373.27 819.4 2380.6C823.4 2387.93 825.4 2396.2 825.4 2405.4C825.4 2415 823.4 2423.47 819.4 2430.8C815.533 2438.13 810.2 2443.87 803.4 2448C796.733 2452 789.2 2454 780.8 2454ZM780.8 2436C785.2 2436 789 2434.73 792.2 2432.2C795.4 2429.53 797.933 2425.93 799.8 2421.4C801.8 2416.73 802.8 2411.4 802.8 2405.4C802.8 2399.13 801.8 2393.73 799.8 2389.2C797.933 2384.67 795.4 2381.2 792.2 2378.8C789 2376.27 785.2 2375 780.8 2375C776.8 2375 773.133 2376.27 769.8 2378.8C766.6 2381.2 764 2384.67 762 2389.2C760.133 2393.73 759.2 2399.13 759.2 2405.4C759.2 2411.4 760.133 2416.73 762 2421.4C763.867 2425.93 766.4 2429.53 769.6 2432.2C772.933 2434.73 776.667 2436 780.8 2436ZM842 2452V2359H864.6V2371.8C866.867 2368.87 869.333 2366.27 872 2364C874.667 2361.73 877.6 2360 880.8 2358.8C884.133 2357.47 887.667 2356.8 891.4 2356.8C896.867 2356.8 901.867 2358.13 906.4 2360.8C910.933 2363.33 914.6 2367.47 917.4 2373.2C920.2 2378.93 921.6 2386.47 921.6 2395.8V2452H899V2396.2C899 2391 898.467 2386.8 897.4 2383.6C896.333 2380.4 894.733 2378.07 892.6 2376.6C890.6 2375 888.2 2374.2 885.4 2374.2C882.867 2374.2 880.333 2374.73 877.8 2375.8C875.4 2376.73 873.2 2378.2 871.2 2380.2C869.2 2382.2 867.6 2384.6 866.4 2387.4C865.2 2390.07 864.6 2393.13 864.6 2396.6V2452H842ZM990.8 2454C985.467 2454 980.8 2453.13 976.8 2451.4C972.933 2449.67 969.667 2446.87 967 2443C964.467 2439.13 962.6 2434 961.4 2427.6C960.333 2421.2 960 2413.27 960.4 2403.8L963 2337L986.4 2334L988.2 2333.8L988.4 2335.6C987.867 2336.53 987.333 2337.47 986.8 2338.4C986.267 2339.33 985.933 2340.93 985.8 2343.2L983.6 2370.8L984.6 2372.2L983 2403.4C982.6 2412.07 982.867 2418.8 983.8 2423.6C984.867 2428.27 986.4 2431.47 988.4 2433.2C990.533 2434.93 993.067 2435.8 996 2435.8C1000.27 2435.8 1004.07 2434.93 1007.4 2433.2C1010.87 2431.47 1014.07 2429.47 1017 2427.2L1021.8 2443.6C1017.27 2446.93 1012.4 2449.53 1007.2 2451.4C1002.13 2453.13 996.667 2454 990.8 2454ZM942.8 2359H1014.4L1014.2 2376.8H942.4L942.8 2359ZM1085.2 2454.2C1078.53 2454.2 1072.33 2453.13 1066.6 2451C1061 2448.87 1056.07 2445.8 1051.8 2441.8C1047.67 2437.67 1044.47 2432.6 1042.2 2426.6C1039.93 2420.6 1038.8 2413.8 1038.8 2406.2C1038.8 2398.47 1039.93 2391.53 1042.2 2385.4C1044.47 2379.27 1047.53 2374.07 1051.4 2369.8C1055.4 2365.53 1060.07 2362.33 1065.4 2360.2C1070.73 2357.93 1076.47 2356.8 1082.6 2356.8C1088.07 2356.8 1093.2 2357.73 1098 2359.6C1102.8 2361.47 1107 2364.33 1110.6 2368.2C1114.33 2371.93 1117.27 2376.67 1119.4 2382.4C1121.53 2388 1122.6 2394.53 1122.6 2402C1122.6 2403.33 1122.53 2404.93 1122.4 2406.8C1122.4 2408.67 1122.33 2410.27 1122.2 2411.6H1060.6C1060.87 2416 1061.73 2419.8 1063.2 2423C1064.67 2426.07 1066.6 2428.6 1069 2430.6C1071.4 2432.6 1074.07 2434.13 1077 2435.2C1079.93 2436.13 1083 2436.6 1086.2 2436.6C1089 2436.6 1091.67 2436.33 1094.2 2435.8C1096.87 2435.27 1099.33 2434.33 1101.6 2433C1104 2431.67 1106.27 2429.93 1108.4 2427.8L1120 2439C1117.07 2442.47 1113.73 2445.4 1110 2447.8C1106.4 2450.07 1102.47 2451.67 1098.2 2452.6C1094.07 2453.67 1089.73 2454.2 1085.2 2454.2ZM1061 2394.6H1100.6C1100.6 2391.4 1100.13 2388.53 1099.2 2386C1098.4 2383.47 1097.2 2381.33 1095.6 2379.6C1094 2377.87 1092 2376.6 1089.6 2375.8C1087.33 2374.87 1084.67 2374.4 1081.6 2374.4C1079.07 2374.4 1076.6 2374.8 1074.2 2375.6C1071.93 2376.27 1069.87 2377.47 1068 2379.2C1066.13 2380.93 1064.6 2383.07 1063.4 2385.6C1062.2 2388.13 1061.4 2391.13 1061 2394.6ZM1142 2452V2359H1164.6V2371.8C1166.87 2368.87 1169.33 2366.27 1172 2364C1174.67 2361.73 1177.6 2360 1180.8 2358.8C1184.13 2357.47 1187.67 2356.8 1191.4 2356.8C1196.87 2356.8 1201.87 2358.13 1206.4 2360.8C1210.93 2363.33 1214.6 2367.47 1217.4 2373.2C1220.2 2378.93 1221.6 2386.47 1221.6 2395.8V2452H1199V2396.2C1199 2391 1198.47 2386.8 1197.4 2383.6C1196.33 2380.4 1194.73 2378.07 1192.6 2376.6C1190.6 2375 1188.2 2374.2 1185.4 2374.2C1182.87 2374.2 1180.33 2374.73 1177.8 2375.8C1175.4 2376.73 1173.2 2378.2 1171.2 2380.2C1169.2 2382.2 1167.6 2384.6 1166.4 2387.4C1165.2 2390.07 1164.6 2393.13 1164.6 2396.6V2452H1142ZM1276.2 2454.2C1271 2454.2 1266.07 2453.2 1261.4 2451.2C1256.87 2449.2 1252.8 2446.13 1249.2 2442C1245.6 2437.87 1242.73 2432.73 1240.6 2426.6C1238.6 2420.47 1237.6 2413.27 1237.6 2405C1237.6 2397 1238.6 2390 1240.6 2384C1242.6 2377.87 1245.33 2372.8 1248.8 2368.8C1252.4 2364.67 1256.53 2361.6 1261.2 2359.6C1265.87 2357.6 1270.93 2356.6 1276.4 2356.6C1279.47 2356.6 1282.4 2357 1285.2 2357.8C1288.13 2358.6 1290.73 2359.8 1293 2361.4C1295.4 2362.87 1297.33 2364.93 1298.8 2367.6V2317.8H1321H1323V2319.6C1322.2 2320.4 1321.67 2321.27 1321.4 2322.2C1321.27 2323.13 1321.2 2324.73 1321.2 2327L1321 2439.6C1321 2441.73 1321.13 2443.8 1321.4 2445.8C1321.67 2447.8 1322.27 2449.87 1323.2 2452H1301C1300.33 2450.53 1299.87 2449.33 1299.6 2448.4C1299.33 2447.47 1299.13 2446.53 1299 2445.6C1299 2444.53 1299 2443.27 1299 2441.8C1297.4 2444.6 1295.4 2446.93 1293 2448.8C1290.6 2450.67 1288 2452 1285.2 2452.8C1282.4 2453.73 1279.4 2454.2 1276.2 2454.2ZM1280 2436C1283.07 2436 1285.73 2435.4 1288 2434.2C1290.4 2432.87 1292.33 2430.93 1293.8 2428.4C1295.4 2425.87 1296.53 2422.67 1297.2 2418.8C1298 2414.8 1298.4 2410.27 1298.4 2405.2C1298.4 2398.27 1297.73 2392.53 1296.4 2388C1295.07 2383.33 1293 2379.87 1290.2 2377.6C1287.4 2375.33 1283.8 2374.2 1279.4 2374.2C1276.33 2374.2 1273.53 2374.93 1271 2376.4C1268.47 2377.73 1266.4 2379.73 1264.8 2382.4C1263.2 2385.07 1261.93 2388.27 1261 2392C1260.2 2395.73 1259.8 2399.93 1259.8 2404.6C1259.8 2411.13 1260.67 2416.73 1262.4 2421.4C1264.27 2426.07 1266.73 2429.67 1269.8 2432.2C1272.87 2434.73 1276.27 2436 1280 2436ZM1439.4 2452V2327.4H1471.6C1478.93 2327.4 1485.07 2328.07 1490 2329.4C1495.07 2330.73 1499.33 2332.67 1502.8 2335.2C1506.4 2337.73 1509.6 2340.87 1512.4 2344.6C1515.2 2348.33 1517.53 2352.6 1519.4 2357.4C1521.4 2362.07 1522.93 2367.13 1524 2372.6C1525.07 2378.07 1525.6 2384.07 1525.6 2390.6C1525.33 2400.07 1524.07 2408.6 1521.8 2416.2C1519.67 2423.67 1516.33 2430.07 1511.8 2435.4C1507.4 2440.73 1501.67 2444.87 1494.6 2447.8C1487.53 2450.6 1479.07 2452 1469.2 2452H1439.4ZM1461.4 2434.4H1468.6C1477.13 2434.4 1483.93 2432.6 1489 2429C1494.2 2425.27 1497.93 2420.13 1500.2 2413.6C1502.47 2407.07 1503.53 2399.47 1503.4 2390.8C1503.4 2381.6 1502.4 2373.6 1500.4 2366.8C1498.53 2360 1495.2 2354.73 1490.4 2351C1485.6 2347.27 1479.07 2345.4 1470.8 2345.4H1461.4V2434.4ZM1585.2 2454.2C1578.53 2454.2 1572.33 2453.13 1566.6 2451C1561 2448.87 1556.07 2445.8 1551.8 2441.8C1547.67 2437.67 1544.47 2432.6 1542.2 2426.6C1539.93 2420.6 1538.8 2413.8 1538.8 2406.2C1538.8 2398.47 1539.93 2391.53 1542.2 2385.4C1544.47 2379.27 1547.53 2374.07 1551.4 2369.8C1555.4 2365.53 1560.07 2362.33 1565.4 2360.2C1570.73 2357.93 1576.47 2356.8 1582.6 2356.8C1588.07 2356.8 1593.2 2357.73 1598 2359.6C1602.8 2361.47 1607 2364.33 1610.6 2368.2C1614.33 2371.93 1617.27 2376.67 1619.4 2382.4C1621.53 2388 1622.6 2394.53 1622.6 2402C1622.6 2403.33 1622.53 2404.93 1622.4 2406.8C1622.4 2408.67 1622.33 2410.27 1622.2 2411.6H1560.6C1560.87 2416 1561.73 2419.8 1563.2 2423C1564.67 2426.07 1566.6 2428.6 1569 2430.6C1571.4 2432.6 1574.07 2434.13 1577 2435.2C1579.93 2436.13 1583 2436.6 1586.2 2436.6C1589 2436.6 1591.67 2436.33 1594.2 2435.8C1596.87 2435.27 1599.33 2434.33 1601.6 2433C1604 2431.67 1606.27 2429.93 1608.4 2427.8L1620 2439C1617.07 2442.47 1613.73 2445.4 1610 2447.8C1606.4 2450.07 1602.47 2451.67 1598.2 2452.6C1594.07 2453.67 1589.73 2454.2 1585.2 2454.2ZM1561 2394.6H1600.6C1600.6 2391.4 1600.13 2388.53 1599.2 2386C1598.4 2383.47 1597.2 2381.33 1595.6 2379.6C1594 2377.87 1592 2376.6 1589.6 2375.8C1587.33 2374.87 1584.67 2374.4 1581.6 2374.4C1579.07 2374.4 1576.6 2374.8 1574.2 2375.6C1571.93 2376.27 1569.87 2377.47 1568 2379.2C1566.13 2380.93 1564.6 2383.07 1563.4 2385.6C1562.2 2388.13 1561.4 2391.13 1561 2394.6ZM1671.8 2452L1636.8 2359H1660.4L1684.2 2425.6H1681L1693.6 2395.2C1696.13 2388.8 1698.13 2382.53 1699.6 2376.4C1701.2 2370.27 1702.2 2364.47 1702.6 2359H1723.8C1723.13 2364.87 1721.67 2371.07 1719.4 2377.6C1717.27 2384.13 1714.8 2390.87 1712 2397.8L1689.6 2452H1671.8ZM1785.2 2454.2C1778.53 2454.2 1772.33 2453.13 1766.6 2451C1761 2448.87 1756.07 2445.8 1751.8 2441.8C1747.67 2437.67 1744.47 2432.6 1742.2 2426.6C1739.93 2420.6 1738.8 2413.8 1738.8 2406.2C1738.8 2398.47 1739.93 2391.53 1742.2 2385.4C1744.47 2379.27 1747.53 2374.07 1751.4 2369.8C1755.4 2365.53 1760.07 2362.33 1765.4 2360.2C1770.73 2357.93 1776.47 2356.8 1782.6 2356.8C1788.07 2356.8 1793.2 2357.73 1798 2359.6C1802.8 2361.47 1807 2364.33 1810.6 2368.2C1814.33 2371.93 1817.27 2376.67 1819.4 2382.4C1821.53 2388 1822.6 2394.53 1822.6 2402C1822.6 2403.33 1822.53 2404.93 1822.4 2406.8C1822.4 2408.67 1822.33 2410.27 1822.2 2411.6H1760.6C1760.87 2416 1761.73 2419.8 1763.2 2423C1764.67 2426.07 1766.6 2428.6 1769 2430.6C1771.4 2432.6 1774.07 2434.13 1777 2435.2C1779.93 2436.13 1783 2436.6 1786.2 2436.6C1789 2436.6 1791.67 2436.33 1794.2 2435.8C1796.87 2435.27 1799.33 2434.33 1801.6 2433C1804 2431.67 1806.27 2429.93 1808.4 2427.8L1820 2439C1817.07 2442.47 1813.73 2445.4 1810 2447.8C1806.4 2450.07 1802.47 2451.67 1798.2 2452.6C1794.07 2453.67 1789.73 2454.2 1785.2 2454.2ZM1761 2394.6H1800.6C1800.6 2391.4 1800.13 2388.53 1799.2 2386C1798.4 2383.47 1797.2 2381.33 1795.6 2379.6C1794 2377.87 1792 2376.6 1789.6 2375.8C1787.33 2374.87 1784.67 2374.4 1781.6 2374.4C1779.07 2374.4 1776.6 2374.8 1774.2 2375.6C1771.93 2376.27 1769.87 2377.47 1768 2379.2C1766.13 2380.93 1764.6 2383.07 1763.4 2385.6C1762.2 2388.13 1761.4 2391.13 1761 2394.6ZM1843.6 2452V2434.2H1869.8V2335.6H1844.8V2317.8H1892.6V2434.2H1918.6V2452H1843.6ZM1980.8 2454C1972.53 2454 1965 2452 1958.2 2448C1951.53 2443.87 1946.27 2438.13 1942.4 2430.8C1938.53 2423.47 1936.6 2415 1936.6 2405.4C1936.6 2396.2 1938.53 2387.93 1942.4 2380.6C1946.27 2373.27 1951.53 2367.47 1958.2 2363.2C1965 2358.93 1972.53 2356.8 1980.8 2356.8C1989.2 2356.8 1996.73 2358.93 2003.4 2363.2C2010.2 2367.47 2015.53 2373.27 2019.4 2380.6C2023.4 2387.93 2025.4 2396.2 2025.4 2405.4C2025.4 2415 2023.4 2423.47 2019.4 2430.8C2015.53 2438.13 2010.2 2443.87 2003.4 2448C1996.73 2452 1989.2 2454 1980.8 2454ZM1980.8 2436C1985.2 2436 1989 2434.73 1992.2 2432.2C1995.4 2429.53 1997.93 2425.93 1999.8 2421.4C2001.8 2416.73 2002.8 2411.4 2002.8 2405.4C2002.8 2399.13 2001.8 2393.73 1999.8 2389.2C1997.93 2384.67 1995.4 2381.2 1992.2 2378.8C1989 2376.27 1985.2 2375 1980.8 2375C1976.8 2375 1973.13 2376.27 1969.8 2378.8C1966.6 2381.2 1964 2384.67 1962 2389.2C1960.13 2393.73 1959.2 2399.13 1959.2 2405.4C1959.2 2411.4 1960.13 2416.73 1962 2421.4C1963.87 2425.93 1966.4 2429.53 1969.6 2432.2C1972.93 2434.73 1976.67 2436 1980.8 2436ZM2040.6 2485.4L2040.4 2358.8H2062.8V2371.8C2064.93 2368.33 2067.27 2365.53 2069.8 2363.4C2072.47 2361.13 2075.4 2359.47 2078.6 2358.4C2081.93 2357.33 2085.4 2356.8 2089 2356.8C2094.07 2356.8 2098.8 2357.87 2103.2 2360C2107.73 2362 2111.67 2365.07 2115 2369.2C2118.33 2373.33 2120.93 2378.47 2122.8 2384.6C2124.8 2390.6 2125.8 2397.67 2125.8 2405.8C2125.8 2413.93 2124.8 2421.07 2122.8 2427.2C2120.8 2433.33 2118 2438.4 2114.4 2442.4C2110.93 2446.4 2106.93 2449.4 2102.4 2451.4C2098 2453.4 2093.4 2454.4 2088.6 2454.4C2085.27 2454.4 2082 2454 2078.8 2453.2C2075.73 2452.4 2072.87 2451.27 2070.2 2449.8C2067.53 2448.2 2065.33 2446.27 2063.6 2444V2485.4H2040.6ZM2082.4 2436.8C2085.33 2436.8 2088.07 2436.27 2090.6 2435.2C2093.13 2434.13 2095.33 2432.4 2097.2 2430C2099.2 2427.47 2100.73 2424.13 2101.8 2420C2102.87 2415.87 2103.4 2410.73 2103.4 2404.6C2103.4 2398.47 2102.6 2393.2 2101 2388.8C2099.4 2384.27 2097.13 2380.8 2094.2 2378.4C2091.27 2376 2087.73 2374.73 2083.6 2374.6C2080.4 2374.47 2077.53 2375 2075 2376.2C2072.6 2377.4 2070.53 2379.33 2068.8 2382C2067.07 2384.67 2065.73 2388.07 2064.8 2392.2C2063.87 2396.33 2063.4 2401.33 2063.4 2407.2C2063.53 2411.2 2063.87 2414.8 2064.4 2418C2064.93 2421.2 2065.67 2424 2066.6 2426.4C2067.67 2428.67 2068.93 2430.6 2070.4 2432.2C2071.87 2433.67 2073.6 2434.8 2075.6 2435.6C2077.6 2436.4 2079.87 2436.8 2082.4 2436.8ZM2185.2 2454.2C2178.53 2454.2 2172.33 2453.13 2166.6 2451C2161 2448.87 2156.07 2445.8 2151.8 2441.8C2147.67 2437.67 2144.47 2432.6 2142.2 2426.6C2139.93 2420.6 2138.8 2413.8 2138.8 2406.2C2138.8 2398.47 2139.93 2391.53 2142.2 2385.4C2144.47 2379.27 2147.53 2374.07 2151.4 2369.8C2155.4 2365.53 2160.07 2362.33 2165.4 2360.2C2170.73 2357.93 2176.47 2356.8 2182.6 2356.8C2188.07 2356.8 2193.2 2357.73 2198 2359.6C2202.8 2361.47 2207 2364.33 2210.6 2368.2C2214.33 2371.93 2217.27 2376.67 2219.4 2382.4C2221.53 2388 2222.6 2394.53 2222.6 2402C2222.6 2403.33 2222.53 2404.93 2222.4 2406.8C2222.4 2408.67 2222.33 2410.27 2222.2 2411.6H2160.6C2160.87 2416 2161.73 2419.8 2163.2 2423C2164.67 2426.07 2166.6 2428.6 2169 2430.6C2171.4 2432.6 2174.07 2434.13 2177 2435.2C2179.93 2436.13 2183 2436.6 2186.2 2436.6C2189 2436.6 2191.67 2436.33 2194.2 2435.8C2196.87 2435.27 2199.33 2434.33 2201.6 2433C2204 2431.67 2206.27 2429.93 2208.4 2427.8L2220 2439C2217.07 2442.47 2213.73 2445.4 2210 2447.8C2206.4 2450.07 2202.47 2451.67 2198.2 2452.6C2194.07 2453.67 2189.73 2454.2 2185.2 2454.2ZM2161 2394.6H2200.6C2200.6 2391.4 2200.13 2388.53 2199.2 2386C2198.4 2383.47 2197.2 2381.33 2195.6 2379.6C2194 2377.87 2192 2376.6 2189.6 2375.8C2187.33 2374.87 2184.67 2374.4 2181.6 2374.4C2179.07 2374.4 2176.6 2374.8 2174.2 2375.6C2171.93 2376.27 2169.87 2377.47 2168 2379.2C2166.13 2380.93 2164.6 2383.07 2163.4 2385.6C2162.2 2388.13 2161.4 2391.13 2161 2394.6ZM2248.8 2359H2272.2L2272 2385L2269.4 2383.4C2269.93 2379.27 2271.07 2375.6 2272.8 2372.4C2274.67 2369.2 2276.93 2366.4 2279.6 2364C2282.4 2361.6 2285.4 2359.8 2288.6 2358.6C2291.93 2357.4 2295.33 2356.8 2298.8 2356.8C2304 2356.8 2308.67 2357.67 2312.8 2359.4C2317.07 2361 2321 2363.67 2324.6 2367.4L2315 2386.4L2314.4 2388L2312.6 2387.2C2312.2 2386.13 2311.8 2385.07 2311.4 2384C2311 2382.8 2310 2381.47 2308.4 2380C2306.53 2378.53 2304.53 2377.4 2302.4 2376.6C2300.4 2375.8 2298.2 2375.4 2295.8 2375.4C2292.6 2375.4 2289.53 2375.93 2286.6 2377C2283.67 2378.07 2281.07 2379.73 2278.8 2382C2276.67 2384.27 2274.93 2387.2 2273.6 2390.8C2272.4 2394.27 2271.8 2398.4 2271.8 2403.2V2452H2248.8V2359Z" fill="white"/>
</g>
</g>
</g>
</g>
</g>
<defs>
<clipPath id="clip0_1_89">
<rect width="2000" height="2213" fill="white" transform="translate(431 277)"/>
</clipPath>
<clipPath id="clip1_1_89">
<rect width="1994.84" height="2213" fill="white" transform="translate(433.581 277)"/>
</clipPath>
<clipPath id="clip2_1_89">
<rect width="1994.84" height="2213" fill="white" transform="translate(433.581 277)"/>
</clipPath>
<clipPath id="clip3_1_89">
<rect width="1994.84" height="2213" fill="white" transform="translate(433.581 277)"/>
</clipPath>
<clipPath id="clip4_1_89">
<rect width="1994.84" height="2213" fill="white" transform="translate(433.581 277)"/>
</clipPath>
<clipPath id="clip5_1_89">
<rect width="1994.84" height="1994.84" fill="white" transform="translate(433.581 277)"/>
</clipPath>
<clipPath id="clip6_1_89">
<rect width="666.021" height="705.281" fill="white" transform="translate(1097.99 921.777)"/>
</clipPath>
<clipPath id="clip7_1_89">
<rect width="666.021" height="705.281" fill="white" transform="translate(1097.99 921.777)"/>
</clipPath>
</defs>
</svg>
