<svg width="2000" height="2213" viewBox="0 0 2000 2213" fill="none" xmlns="http://www.w3.org/2000/svg">
<g clip-path="url(#clip0_1_36)">
<g clip-path="url(#clip1_1_36)">
<g clip-path="url(#clip2_1_36)">
<g clip-path="url(#clip3_1_36)">
<g clip-path="url(#clip4_1_36)">
<g clip-path="url(#clip5_1_36)">
<g clip-path="url(#clip6_1_36)">
<g clip-path="url(#clip7_1_36)">
<path d="M1313.42 684.037H1251.33C1247.3 672.56 1239.8 662.619 1229.87 655.586C1219.94 648.554 1208.07 644.777 1195.91 644.777C1183.74 644.777 1171.87 648.554 1161.94 655.586C1152.01 662.619 1144.51 672.56 1140.48 684.037H1078.39C1073.19 684.037 1068.21 686.101 1064.54 689.774C1060.86 693.447 1058.8 698.429 1058.8 703.623V781.969C1058.8 787.163 1060.86 792.145 1064.54 795.818C1068.21 799.491 1073.19 801.555 1078.39 801.555C1083.58 801.555 1088.56 803.618 1092.24 807.292C1095.91 810.965 1097.97 815.946 1097.97 821.141C1097.97 826.336 1095.91 831.318 1092.24 834.991C1088.56 838.664 1083.58 840.727 1078.39 840.727C1073.19 840.727 1068.21 842.791 1064.54 846.464C1060.86 850.137 1058.8 855.119 1058.8 860.314V938.659C1058.8 943.853 1060.86 948.835 1064.54 952.508C1068.21 956.181 1073.19 958.245 1078.39 958.245H1140.48C1144.51 969.722 1152.01 979.663 1161.94 986.696C1171.87 993.728 1183.74 997.505 1195.91 997.505C1208.07 997.505 1219.94 993.728 1229.87 986.696C1239.8 979.663 1247.3 969.722 1251.33 958.245H1313.42C1318.62 958.245 1323.6 956.181 1327.27 952.508C1330.95 948.835 1333.01 943.853 1333.01 938.659V703.623C1333.01 698.429 1330.95 693.447 1327.27 689.774C1323.6 686.101 1318.62 684.037 1313.42 684.037ZM1293.84 919.072H1235.08C1229.88 919.072 1224.9 921.136 1221.23 924.809C1217.56 928.482 1215.49 933.464 1215.49 938.659C1215.49 943.853 1213.43 948.835 1209.75 952.508C1206.08 956.181 1201.1 958.245 1195.91 958.245C1190.71 958.245 1185.73 956.181 1182.06 952.508C1178.38 948.835 1176.32 943.853 1176.32 938.659C1176.32 933.464 1174.26 928.482 1170.58 924.809C1166.91 921.136 1161.93 919.072 1156.73 919.072H1097.97V876.57C1109.45 872.533 1119.39 865.032 1126.42 855.103C1133.46 845.175 1137.23 833.308 1137.23 821.141C1137.23 808.974 1133.46 797.107 1126.42 787.179C1119.39 777.25 1109.45 769.749 1097.97 765.712V723.21H1156.73C1161.93 723.21 1166.91 721.146 1170.58 717.473C1174.26 713.8 1176.32 708.818 1176.32 703.623C1176.32 698.429 1178.38 693.447 1182.06 689.774C1185.73 686.101 1190.71 684.037 1195.91 684.037C1201.1 684.037 1206.08 686.101 1209.75 689.774C1213.43 693.447 1215.49 698.429 1215.49 703.623C1215.49 708.818 1217.56 713.8 1221.23 717.473C1224.9 721.146 1229.88 723.21 1235.08 723.21H1293.84V919.072Z" fill="white"/>
<path d="M1215.49 1118.27V1056.18C1215.49 1050.98 1213.43 1046 1209.75 1042.33C1206.08 1038.65 1201.1 1036.59 1195.9 1036.59H1117.56C1112.37 1036.59 1107.38 1038.65 1103.71 1042.33C1100.04 1046 1097.97 1050.98 1097.97 1056.18C1097.97 1061.37 1095.91 1066.35 1092.24 1070.03C1088.56 1073.7 1083.58 1075.76 1078.39 1075.76C1073.19 1075.76 1068.21 1073.7 1064.54 1070.03C1060.86 1066.35 1058.8 1061.37 1058.8 1056.18C1058.8 1050.98 1056.74 1046 1053.06 1042.33C1049.39 1038.65 1044.41 1036.59 1039.21 1036.59H960.87C955.675 1036.59 950.693 1038.65 947.02 1042.33C943.347 1046 941.283 1050.98 941.283 1056.18V1118.27C929.806 1122.3 919.865 1129.8 912.833 1139.73C905.8 1149.66 902.023 1161.53 902.023 1173.69C902.023 1185.86 905.8 1197.73 912.833 1207.66C919.865 1217.59 929.806 1225.09 941.283 1229.12V1291.21C941.283 1296.41 943.347 1301.39 947.02 1305.06C950.693 1308.73 955.675 1310.8 960.87 1310.8H1195.9C1201.1 1310.8 1206.08 1308.73 1209.75 1305.06C1213.43 1301.39 1215.49 1296.41 1215.49 1291.21V1229.12C1226.97 1225.09 1236.91 1217.59 1243.94 1207.66C1250.97 1197.73 1254.75 1185.86 1254.75 1173.69C1254.75 1161.53 1250.97 1149.66 1243.94 1139.73C1236.91 1129.8 1226.97 1122.3 1215.49 1118.27ZM1195.9 1193.28C1190.71 1193.28 1185.73 1195.34 1182.06 1199.02C1178.38 1202.69 1176.32 1207.67 1176.32 1212.87V1271.63H980.456V1212.87C980.456 1207.67 978.392 1202.69 974.719 1199.02C971.046 1195.34 966.064 1193.28 960.87 1193.28C955.675 1193.28 950.693 1191.22 947.02 1187.54C943.347 1183.87 941.283 1178.89 941.283 1173.69C941.283 1168.5 943.347 1163.52 947.02 1159.84C950.693 1156.17 955.675 1154.11 960.87 1154.11C966.064 1154.11 971.046 1152.04 974.719 1148.37C978.392 1144.7 980.456 1139.72 980.456 1134.52V1075.76H1022.96C1027 1087.24 1034.5 1097.18 1044.43 1104.21C1054.35 1111.25 1066.22 1115.02 1078.39 1115.02C1090.55 1115.02 1102.42 1111.25 1112.35 1104.21C1122.28 1097.18 1129.78 1087.24 1133.82 1075.76H1176.32V1134.52C1176.32 1139.72 1178.38 1144.7 1182.06 1148.37C1185.73 1152.04 1190.71 1154.11 1195.9 1154.11C1201.1 1154.11 1206.08 1156.17 1209.75 1159.84C1213.43 1163.52 1215.49 1168.5 1215.49 1173.69C1215.49 1178.89 1213.43 1183.87 1209.75 1187.54C1206.08 1191.22 1201.1 1193.28 1195.9 1193.28Z" fill="white"/>
<path d="M960.87 1036.59H898.781C894.744 1025.11 887.243 1015.17 877.314 1008.14C867.386 1001.11 855.519 997.33 843.352 997.33C831.185 997.33 819.318 1001.11 809.39 1008.14C799.461 1015.17 791.96 1025.11 787.923 1036.59H725.834C720.64 1036.59 715.658 1038.65 711.985 1042.33C708.312 1046 706.248 1050.98 706.248 1056.18V1291.21C706.248 1296.41 708.312 1301.39 711.985 1305.06C715.658 1308.73 720.64 1310.8 725.834 1310.8H787.923C791.96 1322.28 799.461 1332.22 809.39 1339.25C819.318 1346.28 831.185 1350.06 843.352 1350.06C855.519 1350.06 867.386 1346.28 877.314 1339.25C887.243 1332.22 894.744 1322.28 898.781 1310.8H960.87C966.064 1310.8 971.046 1308.73 974.719 1305.06C978.392 1301.39 980.456 1296.41 980.456 1291.21V1212.87C980.456 1207.67 978.392 1202.69 974.719 1199.02C971.046 1195.34 966.064 1193.28 960.87 1193.28C955.675 1193.28 950.693 1191.22 947.02 1187.54C943.347 1183.87 941.283 1178.89 941.283 1173.69C941.283 1168.5 943.347 1163.52 947.02 1159.84C950.693 1156.17 955.675 1154.11 960.87 1154.11C966.064 1154.11 971.046 1152.04 974.719 1148.37C978.392 1144.7 980.456 1139.72 980.456 1134.52V1056.18C980.456 1050.98 978.392 1046 974.719 1042.33C971.046 1038.65 966.064 1036.59 960.87 1036.59ZM941.283 1118.26C929.806 1122.3 919.865 1129.8 912.833 1139.73C905.8 1149.66 902.023 1161.53 902.023 1173.69C902.023 1185.86 905.8 1197.73 912.833 1207.66C919.865 1217.59 929.806 1225.09 941.283 1229.12V1271.63H882.525C877.33 1271.63 872.348 1273.69 868.675 1277.36C865.002 1281.04 862.938 1286.02 862.938 1291.21C862.938 1296.41 860.875 1301.39 857.202 1305.06C853.528 1308.73 848.547 1310.8 843.352 1310.8C838.157 1310.8 833.176 1308.73 829.502 1305.06C825.829 1301.39 823.766 1296.41 823.766 1291.21C823.766 1286.02 821.702 1281.04 818.029 1277.36C814.356 1273.69 809.374 1271.63 804.179 1271.63H745.421V1075.76H804.179C809.374 1075.76 814.356 1073.7 818.029 1070.03C821.702 1066.35 823.766 1061.37 823.766 1056.18C823.766 1050.98 825.829 1046 829.502 1042.33C833.176 1038.65 838.157 1036.59 843.352 1036.59C848.547 1036.59 853.528 1038.65 857.202 1042.33C860.875 1046 862.938 1050.98 862.938 1056.18C862.938 1061.37 865.002 1066.35 868.675 1070.03C872.348 1073.7 877.33 1075.76 882.525 1075.76H941.283V1118.26Z" fill="white"/>
<path d="M980.456 883.23V821.141C980.456 815.946 978.393 810.965 974.719 807.291C971.046 803.618 966.064 801.555 960.87 801.555H725.834C720.64 801.555 715.658 803.618 711.985 807.291C708.312 810.965 706.248 815.946 706.248 821.141V883.23C694.771 887.267 684.83 894.768 677.797 904.696C670.765 914.625 666.988 926.492 666.988 938.659C666.988 950.826 670.765 962.692 677.797 972.621C684.83 982.55 694.771 990.05 706.248 994.088V1056.18C706.248 1061.37 708.312 1066.35 711.985 1070.03C715.658 1073.7 720.64 1075.76 725.834 1075.76H804.18C809.374 1075.76 814.356 1073.7 818.029 1070.03C821.702 1066.35 823.766 1061.37 823.766 1056.18C823.766 1050.98 825.829 1046 829.503 1042.33C833.176 1038.65 838.158 1036.59 843.352 1036.59C848.547 1036.59 853.529 1038.65 857.202 1042.33C860.875 1046 862.938 1050.98 862.938 1056.18C862.938 1061.37 865.002 1066.35 868.675 1070.03C872.348 1073.7 877.33 1075.76 882.525 1075.76H960.87C966.064 1075.76 971.046 1073.7 974.719 1070.03C978.393 1066.35 980.456 1061.37 980.456 1056.18V994.088C991.933 990.05 1001.87 982.55 1008.91 972.621C1015.94 962.692 1019.72 950.826 1019.72 938.659C1019.72 926.492 1015.94 914.625 1008.91 904.696C1001.87 894.768 991.933 887.267 980.456 883.23ZM960.87 958.245C955.675 958.245 950.693 960.309 947.02 963.982C943.347 967.655 941.284 972.637 941.284 977.831V1036.59H898.781C894.744 1025.11 887.243 1015.17 877.314 1008.14C867.386 1001.11 855.519 997.33 843.352 997.33C831.185 997.33 819.319 1001.11 809.39 1008.14C799.461 1015.17 791.96 1025.11 787.923 1036.59H745.421V977.831C745.421 972.637 743.357 967.655 739.684 963.982C736.011 960.309 731.029 958.245 725.834 958.245C720.64 958.245 715.658 956.181 711.985 952.508C708.312 948.835 706.248 943.853 706.248 938.659C706.248 933.464 708.312 928.482 711.985 924.809C715.658 921.136 720.64 919.072 725.834 919.072C731.029 919.072 736.011 917.009 739.684 913.336C743.357 909.663 745.421 904.681 745.421 899.486V840.727H941.284V899.486C941.284 904.681 943.347 909.663 947.02 913.336C950.693 917.009 955.675 919.072 960.87 919.072C966.064 919.072 971.046 921.136 974.719 924.809C978.393 928.482 980.456 933.464 980.456 938.659C980.456 943.853 978.393 948.835 974.719 952.508C971.046 956.181 966.064 958.245 960.87 958.245Z" fill="white"/>
</g>
</g>
<path d="M129.245 664.812L154.178 673.114C146.457 678.332 140.902 686.024 137.518 696.197C134.629 704.878 134.098 712.183 135.941 718.112C137.783 724.04 141.841 728.047 148.106 730.141C160.271 734.191 169.361 727.187 175.383 709.122L187.563 672.554L134.693 654.941C112.356 647.5 97.5595 654.669 90.3119 676.447L75.5515 720.75L52.2891 713L67.5082 667.307C73.4654 649.428 82.4765 637.163 94.5486 630.503C106.571 623.829 120.901 623.262 137.525 628.797L218.947 655.923L198.373 717.703C193.147 733.395 185.491 744.679 175.419 751.539C165.325 758.443 153.547 759.654 140.084 755.167C126.571 750.665 117.94 742.349 114.191 730.212C110.427 718.126 111.008 704.699 115.919 689.931C118.686 681.616 123.13 673.243 129.245 664.812Z" fill="white"/>
<path d="M221.349 532.643L94.1973 455.17L107.832 432.79L234.984 510.255C240.962 513.897 246.246 516.14 250.827 516.986C255.458 517.854 259.443 517.28 262.805 515.251C266.225 513.208 269.057 510.921 271.286 508.384C273.494 505.889 276.01 502.319 278.835 497.688L299.782 510.441C288.448 529.044 276.856 540.034 264.992 543.41C253.156 546.744 238.611 543.159 221.349 532.643Z" fill="white"/>
<path d="M417.449 342.32L288.985 216.524L307.373 197.742L453.357 340.7L405.377 389.691C390.552 404.832 373.669 412.416 354.737 412.445C335.804 412.402 318.979 405.169 304.255 390.752C289.81 376.608 282.469 359.826 282.233 340.414C282.032 321.037 288.541 304.592 301.76 291.093C310.183 282.49 320.162 276.469 331.682 273.028L350.457 291.415C338.643 293.48 328.249 299.086 319.28 308.255C311.094 316.613 307.287 326.693 307.861 338.485C308.398 350.314 313.667 361.131 323.668 370.924C333.811 380.852 344.629 386.071 356.128 386.573C367.626 387.075 378.2 382.394 387.856 372.537L417.449 342.32Z" fill="white"/>
<path d="M499.803 138.801L574.293 257.436L552.529 271.099L491.079 173.232L470.877 185.921L467.723 158.945L499.803 138.801ZM461.572 128.306C457.673 126.879 454.683 124.513 452.604 121.194C450.547 117.918 449.737 114.241 450.174 110.147C450.597 106.126 453.049 102.706 457.522 99.896C461.959 97.1146 466.096 96.3905 469.945 97.7311C473.781 99.1361 476.72 101.48 478.777 104.756C480.856 108.076 481.688 111.739 481.265 115.768C480.827 119.854 478.39 123.295 473.96 126.076C469.479 128.886 465.357 129.632 461.572 128.306Z" fill="white"/>
<path d="M722.571 263.049L697.753 271.486L653.766 142.213C650.504 132.621 649.163 122.994 649.758 113.33C650.396 103.653 652.697 94.6988 656.669 86.4691C660.64 78.2394 666.168 70.9345 673.25 64.5472C680.311 58.1097 688.527 53.2995 697.882 50.1094C707.287 46.9122 716.707 45.7222 726.141 46.5466C735.553 47.3208 744.407 49.794 752.701 53.9518C760.995 58.1097 768.329 63.7801 774.702 70.9704C781.032 78.1749 785.828 86.5695 789.089 96.1612C792.351 105.753 793.72 115.316 793.197 124.858C792.609 134.363 790.351 143.303 786.416 151.669C782.473 159.991 776.96 167.347 769.885 173.734C762.823 180.171 754.493 185.017 744.902 188.286C733.13 192.294 721.23 193.24 709.187 191.132L700.749 166.321C712.04 169.87 723.869 169.547 736.242 165.332C742.866 163.074 748.5 159.87 753.124 155.705C757.755 151.54 761.289 146.801 763.719 141.482C766.099 136.17 767.347 130.349 767.461 123.997C767.59 117.696 766.529 111.237 764.279 104.606C762.02 97.9821 758.924 92.2113 754.974 87.3007C751.009 82.34 746.514 78.4688 741.482 75.6802C736.385 72.8629 730.836 71.2141 724.829 70.7266C718.807 70.189 712.456 71.0564 705.782 73.3289C699.344 75.5225 693.882 78.6194 689.408 82.6195C684.914 86.5767 681.458 91.2435 679.043 96.62C676.663 101.932 675.415 107.753 675.3 114.097C675.171 120.399 676.261 126.951 678.577 133.768L722.571 263.049Z" fill="white"/>
<path d="M935.102 146.779L909.473 148.615L903.796 69.1566C902.204 46.8476 905.273 31.1194 913.008 21.9793C916.75 17.3913 921.481 13.8142 927.187 11.2478C932.843 8.73154 937.833 7.12575 942.148 6.43038C946.514 5.72785 952.479 5.10417 960.049 4.55935L985.684 2.73132L987.433 27.191L956.529 29.3989C952.672 29.6714 949.676 29.9868 947.539 30.3309C945.403 30.6821 942.937 31.5424 940.141 32.9188C937.295 34.2522 934.887 36.2666 932.922 38.962C929.596 43.9084 928.435 53.364 929.424 67.3286L935.102 146.779Z" fill="white"/>
<path d="M1178.64 79.5298L1174.59 105.495C1168.16 98.7491 1159.65 94.5482 1149.07 92.8994C1140.02 91.4943 1132.73 92.1897 1127.19 94.9927C1121.65 97.7956 1118.38 102.462 1117.36 108.993C1115.39 121.667 1123.8 129.467 1142.62 132.392L1180.7 138.328L1189.28 83.2647C1192.9 60.0022 1183.37 46.6039 1160.69 43.0697L1114.55 35.8866L1118.32 11.6564L1165.91 19.0688C1184.53 21.965 1198.13 28.8183 1206.7 39.6144C1215.28 50.3603 1218.22 64.3894 1215.53 81.7019L1202.32 166.508L1137.98 156.486C1121.63 153.941 1109.24 148.271 1100.8 139.482C1092.31 130.679 1089.16 119.266 1091.34 105.244C1093.54 91.1717 1100.3 81.2789 1111.64 75.5583C1122.93 69.8377 1136.27 68.1745 1151.65 70.5689C1160.31 71.9166 1169.31 74.9059 1178.64 79.5298Z" fill="white"/>
<path d="M1357.71 97.5518L1333.75 87.487L1402.13 59.5146L1391.38 85.0998L1427.72 100.376L1418.22 122.986L1381.87 107.71L1358.58 163.138C1355.94 169.411 1354.8 175.038 1355.15 180.014C1355.48 185.039 1357.25 189.211 1360.48 192.53C1363.73 195.914 1366.98 198.609 1370.23 200.609C1373.52 202.631 1377.76 204.731 1382.95 206.911L1373.45 229.521C1352.82 220.854 1339.23 210.495 1332.67 198.444C1326.16 186.415 1326.74 171.261 1334.41 152.988L1357.71 97.5518Z" fill="white"/>
<path d="M1573.1 259.687L1557.73 280.999C1555.05 272.074 1549.37 264.475 1540.68 258.203C1533.25 252.848 1526.44 250.167 1520.23 250.16C1514.03 250.145 1508.99 252.819 1505.12 258.181C1497.62 268.583 1501.59 279.351 1517.03 290.484L1548.29 313.036L1580.89 267.838C1594.66 248.74 1592.24 232.481 1573.62 219.054L1535.75 191.742L1550.09 171.849L1589.15 200.022C1604.44 211.047 1613.46 223.313 1616.2 236.819C1618.98 250.289 1615.24 264.131 1605 278.34L1554.79 347.955L1501.98 309.861C1488.56 300.183 1480.08 289.516 1476.54 277.845C1472.96 266.153 1475.33 254.554 1483.63 243.041C1491.96 231.492 1502.48 225.736 1515.18 225.786C1527.84 225.807 1540.48 230.367 1553.1 239.471C1560.21 244.597 1566.87 251.335 1573.1 259.687Z" fill="white"/>
<path d="M1627.01 421.872L1738.25 336.729L1816.47 438.926C1824.89 449.923 1829.51 460.26 1830.32 469.938C1831.21 479.795 1829.13 488.283 1824.11 495.401C1819.07 502.584 1811.91 509.739 1802.62 516.843L1737.73 566.508L1722.1 546.106L1787 496.441C1799.05 487.222 1804.23 477.487 1802.55 467.242C1801.71 462.031 1796.97 453.794 1788.34 442.518L1781.07 433.019L1689.31 503.258L1673.69 482.849L1765.45 412.61L1734.39 372.035L1642.63 442.274L1627.01 421.872Z" fill="white"/>
<path d="M1885.21 706.197L1860.53 715.251C1863.31 706.355 1862.86 696.878 1859.16 686.813C1856.01 678.218 1851.87 672.182 1846.73 668.698C1841.59 665.214 1835.92 664.612 1829.72 666.884C1817.69 671.3 1814.94 682.447 1821.5 700.326L1834.78 736.507L1887.09 717.309C1909.19 709.201 1916.29 694.369 1908.38 672.82L1892.3 628.983L1915.32 620.538L1931.91 665.751C1938.41 683.444 1939.01 698.656 1933.72 711.387C1928.48 724.105 1917.63 733.481 1901.19 739.51L1820.61 769.081L1798.18 707.946C1792.48 692.419 1791.43 678.827 1795.03 667.178C1798.62 655.486 1807.07 647.199 1820.39 642.31C1833.76 637.406 1845.69 638.525 1856.2 645.672C1866.68 652.776 1874.6 663.629 1879.95 678.246C1882.97 686.469 1884.72 695.788 1885.21 706.197Z" fill="white"/>
<path d="M152.493 1324.03L127.553 1332.34C130.607 1323.54 130.435 1314.05 127.052 1303.87C124.163 1295.19 120.198 1289.03 115.166 1285.39C110.184 1281.74 104.535 1280.96 98.2191 1283.06C86.0538 1287.11 82.9784 1298.18 88.9929 1316.24L101.173 1352.81L154.042 1335.2C176.38 1327.76 183.921 1313.15 176.666 1291.37L161.913 1247.07L185.176 1239.32L200.395 1285.01C206.366 1302.94 206.531 1318.15 200.897 1330.66C195.226 1343.22 184.086 1352.28 167.462 1357.82L86.0323 1384.94L65.4509 1323.16C60.2249 1307.47 59.5869 1293.85 63.5368 1282.32C67.4725 1270.74 76.1681 1262.71 89.6309 1258.22C103.144 1253.72 115.037 1255.21 125.317 1262.66C135.575 1270.08 143.167 1281.17 148.085 1295.94C150.852 1304.25 152.321 1313.62 152.493 1324.03Z" fill="white"/>
<path d="M196.38 1479.16L323.532 1401.68L337.167 1424.07L210.015 1501.54C204.036 1505.18 199.62 1508.84 196.767 1512.53C193.871 1516.25 192.566 1520.08 192.86 1524.03C193.083 1527.97 193.807 1531.51 195.032 1534.66C196.237 1537.76 198.266 1541.65 201.119 1546.34L180.179 1559.09C168.824 1540.46 164.358 1525.09 166.795 1513C169.254 1500.96 179.118 1489.67 196.38 1479.16Z" fill="white"/>
<path d="M352.386 1717.97L480.842 1592.16L499.237 1610.95L353.253 1753.9L305.273 1704.91C290.448 1689.77 283.215 1672.73 283.587 1653.8C284.025 1634.88 291.609 1618.2 306.334 1603.78C320.815 1589.6 337.74 1582.62 357.117 1582.82C376.494 1583.02 392.796 1589.88 406.022 1603.38C414.481 1612.01 420.295 1622.12 423.456 1633.67L404.681 1652.06C402.903 1640.24 397.505 1629.73 388.502 1620.53C380.351 1612.21 370.358 1608.19 358.515 1608.49C346.672 1608.78 335.754 1613.82 325.754 1623.61C315.61 1633.54 310.169 1644.25 309.423 1655.74C308.678 1667.22 313.137 1677.89 322.793 1687.75L352.386 1717.97Z" fill="white"/>
<path d="M574.279 1739.16L499.789 1857.79L478.089 1844.17L539.539 1746.3L519.266 1733.57L542.192 1719.01L574.279 1739.16ZM567.117 1700.16C566.73 1695.99 567.569 1692.27 569.626 1688.99C571.705 1685.67 574.673 1683.35 578.523 1682.01C582.358 1680.6 586.509 1681.3 590.982 1684.11C595.419 1686.89 597.857 1690.33 598.294 1694.42C598.717 1698.44 597.885 1702.11 595.799 1705.43C593.742 1708.71 590.803 1711.04 586.967 1712.46C583.096 1713.84 578.938 1713.14 574.508 1710.35C570.035 1707.54 567.569 1704.14 567.117 1700.16Z" fill="white"/>
<path d="M634.575 1992.11L609.764 1983.66L653.744 1854.38C657.006 1844.79 661.823 1836.35 668.182 1829.05C674.59 1821.77 681.874 1816.09 690.046 1811.99C698.211 1807.89 707.057 1805.44 716.578 1804.65C726.083 1803.91 735.546 1805.13 744.951 1808.33C754.314 1811.51 762.486 1816.29 769.475 1822.65C776.451 1829.05 781.949 1836.43 785.985 1844.78C790.064 1853.15 792.415 1862.12 793.039 1871.69C793.706 1881.27 792.408 1890.86 789.146 1900.45C785.885 1910.05 781.117 1918.43 774.845 1925.6C768.608 1932.84 761.36 1938.56 753.102 1942.79C744.901 1946.98 736.048 1949.45 726.542 1950.19C717.015 1950.99 707.48 1949.75 697.939 1946.51C686.125 1942.49 676.089 1935.97 667.83 1926.96L676.275 1902.15C683.057 1911.85 692.634 1918.8 705 1923.01C711.624 1925.26 718.047 1926.15 724.255 1925.68C730.463 1925.21 736.155 1923.6 741.331 1920.86C746.471 1918.06 751.016 1914.2 754.959 1909.29C758.909 1904.38 762.006 1898.61 764.264 1891.99C766.515 1885.36 767.59 1878.88 767.468 1872.53C767.339 1866.22 766.128 1860.44 763.841 1855.16C761.518 1849.82 758.127 1845.13 753.661 1841.08C749.217 1836.98 743.675 1833.8 737.051 1831.54C730.564 1829.33 724.327 1828.45 718.334 1828.9C712.355 1829.29 706.778 1830.88 701.588 1833.67C696.462 1836.42 691.924 1840.26 687.982 1845.17C684.017 1850.13 680.877 1856.02 678.562 1862.83L634.575 1992.11Z" fill="white"/>
<path d="M925.108 1989.55L899.473 1987.71L905.151 1908.26C906.749 1885.9 912.026 1870.75 920.987 1862.8C925.345 1858.84 930.528 1855.99 936.543 1854.27C942.5 1852.58 947.668 1851.7 952.041 1851.62C956.464 1851.54 962.457 1851.78 970.02 1852.32L995.656 1854.15L993.907 1878.61L963.002 1876.4C959.146 1876.12 956.135 1876 953.977 1876.05C951.812 1876.09 949.253 1876.57 946.292 1877.49C943.281 1878.45 940.607 1880.12 938.277 1882.51C934.284 1886.88 931.79 1896.08 930.786 1910.09L925.108 1989.55Z" fill="white"/>
<path d="M1174.85 1892.85L1178.9 1918.82C1170.72 1914.35 1161.33 1912.94 1150.74 1914.58C1141.7 1915.99 1134.97 1918.87 1130.54 1923.23C1126.11 1927.54 1124.41 1932.98 1125.43 1939.55C1127.4 1952.23 1137.8 1957.09 1156.61 1954.16L1194.7 1948.23L1186.12 1893.18C1182.5 1869.92 1169.35 1860.05 1146.66 1863.58L1100.53 1870.76L1096.76 1846.53L1144.35 1839.13C1163.02 1836.22 1178.05 1838.59 1189.44 1846.22C1200.89 1853.9 1207.96 1866.4 1210.65 1883.71L1223.86 1968.51L1159.51 1978.53C1143.17 1981.07 1129.63 1979.44 1118.92 1973.63C1108.16 1967.83 1101.69 1957.91 1099.5 1943.88C1097.31 1929.81 1100.75 1918.33 1109.82 1909.44C1118.84 1900.56 1131.04 1894.91 1146.42 1892.52C1155.08 1891.17 1164.56 1891.28 1174.85 1892.85Z" fill="white"/>
<path d="M1322.43 1815.13L1298.47 1825.2L1326.34 1756.78L1337.09 1782.36L1373.44 1767.09L1382.94 1789.7L1346.59 1804.97L1369.89 1860.4C1372.53 1866.68 1375.75 1871.43 1379.54 1874.66C1383.36 1877.94 1387.58 1879.59 1392.21 1879.62C1396.9 1879.66 1401.1 1879.23 1404.8 1878.3C1408.55 1877.36 1413.02 1875.81 1418.21 1873.63L1427.71 1896.23C1407.08 1904.9 1390.18 1907.36 1376.97 1903.62C1363.82 1899.85 1353.4 1888.83 1345.73 1870.56L1322.43 1815.13Z" fill="white"/>
<path d="M1558.75 1717.04L1574.13 1738.36C1564.82 1738.08 1555.81 1741.07 1547.11 1747.34C1539.68 1752.69 1534.99 1758.31 1533.02 1764.2C1531.02 1770.05 1531.97 1775.67 1535.86 1781.07C1543.36 1791.47 1554.84 1791.1 1570.28 1779.96L1601.54 1757.42L1568.95 1712.23C1555.17 1693.13 1538.98 1690.3 1520.36 1703.72L1482.49 1731.04L1468.15 1711.14L1507.21 1682.98C1522.54 1671.92 1537 1667.22 1550.62 1668.86C1564.31 1670.52 1576.28 1678.45 1586.52 1692.67L1636.73 1762.28L1583.91 1800.37C1570.49 1810.05 1557.69 1814.72 1545.5 1814.39C1533.28 1814.1 1523.02 1808.19 1514.71 1796.68C1506.38 1785.13 1504.24 1773.33 1508.3 1761.3C1512.31 1749.3 1520.63 1738.74 1533.25 1729.63C1540.36 1724.51 1548.86 1720.31 1558.75 1717.04Z" fill="white"/>
<path d="M1738.25 1659.89L1627.01 1574.74L1705.29 1472.49C1713.67 1461.53 1722.43 1454.4 1731.56 1451.08C1740.81 1447.62 1749.55 1447.39 1757.81 1450.37C1766.03 1453.4 1774.79 1458.47 1784.08 1465.58L1848.96 1515.25L1833.34 1535.65L1768.46 1485.99C1756.41 1476.76 1745.68 1474.28 1736.26 1478.53C1731.42 1480.75 1724.69 1487.49 1716.05 1498.76L1708.79 1508.26L1800.54 1578.51L1784.92 1598.91L1693.16 1528.67L1662.1 1569.25L1753.86 1639.48L1738.25 1659.89Z" fill="white"/>
<path d="M1862.2 1281.97L1886.87 1291.02C1878.99 1296 1873.21 1303.52 1869.52 1313.59C1866.36 1322.18 1865.62 1329.47 1867.28 1335.45C1868.9 1341.41 1872.83 1345.54 1879.08 1347.83C1891.11 1352.25 1900.41 1345.52 1906.98 1327.65L1920.26 1291.47L1867.95 1272.27C1845.84 1264.16 1830.84 1270.88 1822.93 1292.43L1806.85 1336.26L1783.82 1327.81L1800.42 1282.6C1806.93 1264.86 1816.28 1252.86 1828.48 1246.6C1840.75 1240.31 1855.11 1240.19 1871.56 1246.22L1952.13 1275.79L1929.7 1336.92C1924 1352.45 1916.01 1363.5 1905.73 1370.05C1895.44 1376.64 1883.63 1377.5 1870.3 1372.61C1856.93 1367.7 1848.55 1359.12 1845.18 1346.89C1841.78 1334.69 1842.76 1321.29 1848.12 1306.68C1851.14 1298.45 1855.83 1290.22 1862.2 1281.97Z" fill="white"/>
<path d="M2.58105 998.294C2.58105 955.188 37.5285 920.241 80.634 920.241C123.739 920.241 158.687 955.188 158.68 998.294C158.68 1041.4 123.732 1076.35 80.634 1076.35C37.5285 1076.35 2.58105 1041.4 2.58105 998.294Z" fill="white"/>
<path d="M1841.31 998.294C1841.31 955.188 1876.26 920.241 1919.37 920.241C1962.47 920.241 1997.42 955.188 1997.42 998.294C1997.42 1041.4 1962.47 1076.35 1919.37 1076.35C1876.26 1076.35 1841.31 1041.4 1841.31 998.294Z" fill="white"/>
</g>
<path d="M113.2 2175V2050.4H190.8V2068.6H133.4V2098.8H180V2117H133.4V2175H113.2ZM217.8 2082H241.2L241 2108L238.4 2106.4C238.933 2102.27 240.067 2098.6 241.8 2095.4C243.667 2092.2 245.933 2089.4 248.6 2087C251.4 2084.6 254.4 2082.8 257.6 2081.6C260.933 2080.4 264.333 2079.8 267.8 2079.8C273 2079.8 277.667 2080.67 281.8 2082.4C286.067 2084 290 2086.67 293.6 2090.4L284 2109.4L283.4 2111L281.6 2110.2C281.2 2109.13 280.8 2108.07 280.4 2107C280 2105.8 279 2104.47 277.4 2103C275.533 2101.53 273.533 2100.4 271.4 2099.6C269.4 2098.8 267.2 2098.4 264.8 2098.4C261.6 2098.4 258.533 2098.93 255.6 2100C252.667 2101.07 250.067 2102.73 247.8 2105C245.667 2107.27 243.933 2110.2 242.6 2113.8C241.4 2117.27 240.8 2121.4 240.8 2126.2V2175H217.8V2082ZM349.8 2177C341.533 2177 334 2175 327.2 2171C320.533 2166.87 315.267 2161.13 311.4 2153.8C307.533 2146.47 305.6 2138 305.6 2128.4C305.6 2119.2 307.533 2110.93 311.4 2103.6C315.267 2096.27 320.533 2090.47 327.2 2086.2C334 2081.93 341.533 2079.8 349.8 2079.8C358.2 2079.8 365.733 2081.93 372.4 2086.2C379.2 2090.47 384.533 2096.27 388.4 2103.6C392.4 2110.93 394.4 2119.2 394.4 2128.4C394.4 2138 392.4 2146.47 388.4 2153.8C384.533 2161.13 379.2 2166.87 372.4 2171C365.733 2175 358.2 2177 349.8 2177ZM349.8 2159C354.2 2159 358 2157.73 361.2 2155.2C364.4 2152.53 366.933 2148.93 368.8 2144.4C370.8 2139.73 371.8 2134.4 371.8 2128.4C371.8 2122.13 370.8 2116.73 368.8 2112.2C366.933 2107.67 364.4 2104.2 361.2 2101.8C358 2099.27 354.2 2098 349.8 2098C345.8 2098 342.133 2099.27 338.8 2101.8C335.6 2104.2 333 2107.67 331 2112.2C329.133 2116.73 328.2 2122.13 328.2 2128.4C328.2 2134.4 329.133 2139.73 331 2144.4C332.867 2148.93 335.4 2152.53 338.6 2155.2C341.933 2157.73 345.667 2159 349.8 2159ZM411 2175V2082H433.6V2094.8C435.867 2091.87 438.333 2089.27 441 2087C443.667 2084.73 446.6 2083 449.8 2081.8C453.133 2080.47 456.667 2079.8 460.4 2079.8C465.867 2079.8 470.867 2081.13 475.4 2083.8C479.933 2086.33 483.6 2090.47 486.4 2096.2C489.2 2101.93 490.6 2109.47 490.6 2118.8V2175H468V2119.2C468 2114 467.467 2109.8 466.4 2106.6C465.333 2103.4 463.733 2101.07 461.6 2099.6C459.6 2098 457.2 2097.2 454.4 2097.2C451.867 2097.2 449.333 2097.73 446.8 2098.8C444.4 2099.73 442.2 2101.2 440.2 2103.2C438.2 2105.2 436.6 2107.6 435.4 2110.4C434.2 2113.07 433.6 2116.13 433.6 2119.6V2175H411ZM559.8 2177C554.467 2177 549.8 2176.13 545.8 2174.4C541.933 2172.67 538.667 2169.87 536 2166C533.467 2162.13 531.6 2157 530.4 2150.6C529.333 2144.2 529 2136.27 529.4 2126.8L532 2060L555.4 2057L557.2 2056.8L557.4 2058.6C556.867 2059.53 556.333 2060.47 555.8 2061.4C555.267 2062.33 554.933 2063.93 554.8 2066.2L552.6 2093.8L553.6 2095.2L552 2126.4C551.6 2135.07 551.867 2141.8 552.8 2146.6C553.867 2151.27 555.4 2154.47 557.4 2156.2C559.533 2157.93 562.067 2158.8 565 2158.8C569.267 2158.8 573.067 2157.93 576.4 2156.2C579.867 2154.47 583.067 2152.47 586 2150.2L590.8 2166.6C586.267 2169.93 581.4 2172.53 576.2 2174.4C571.133 2176.13 565.667 2177 559.8 2177ZM511.8 2082H583.4L583.2 2099.8H511.4L511.8 2082ZM654.2 2177.2C647.533 2177.2 641.333 2176.13 635.6 2174C630 2171.87 625.067 2168.8 620.8 2164.8C616.667 2160.67 613.467 2155.6 611.2 2149.6C608.933 2143.6 607.8 2136.8 607.8 2129.2C607.8 2121.47 608.933 2114.53 611.2 2108.4C613.467 2102.27 616.533 2097.07 620.4 2092.8C624.4 2088.53 629.067 2085.33 634.4 2083.2C639.733 2080.93 645.467 2079.8 651.6 2079.8C657.067 2079.8 662.2 2080.73 667 2082.6C671.8 2084.47 676 2087.33 679.6 2091.2C683.333 2094.93 686.267 2099.67 688.4 2105.4C690.533 2111 691.6 2117.53 691.6 2125C691.6 2126.33 691.533 2127.93 691.4 2129.8C691.4 2131.67 691.333 2133.27 691.2 2134.6H629.6C629.867 2139 630.733 2142.8 632.2 2146C633.667 2149.07 635.6 2151.6 638 2153.6C640.4 2155.6 643.067 2157.13 646 2158.2C648.933 2159.13 652 2159.6 655.2 2159.6C658 2159.6 660.667 2159.33 663.2 2158.8C665.867 2158.27 668.333 2157.33 670.6 2156C673 2154.67 675.267 2152.93 677.4 2150.8L689 2162C686.067 2165.47 682.733 2168.4 679 2170.8C675.4 2173.07 671.467 2174.67 667.2 2175.6C663.067 2176.67 658.733 2177.2 654.2 2177.2ZM630 2117.6H669.6C669.6 2114.4 669.133 2111.53 668.2 2109C667.4 2106.47 666.2 2104.33 664.6 2102.6C663 2100.87 661 2099.6 658.6 2098.8C656.333 2097.87 653.667 2097.4 650.6 2097.4C648.067 2097.4 645.6 2097.8 643.2 2098.6C640.933 2099.27 638.867 2100.47 637 2102.2C635.133 2103.93 633.6 2106.07 632.4 2108.6C631.2 2111.13 630.4 2114.13 630 2117.6ZM711 2175V2082H733.6V2094.8C735.867 2091.87 738.333 2089.27 741 2087C743.667 2084.73 746.6 2083 749.8 2081.8C753.133 2080.47 756.667 2079.8 760.4 2079.8C765.867 2079.8 770.867 2081.13 775.4 2083.8C779.933 2086.33 783.6 2090.47 786.4 2096.2C789.2 2101.93 790.6 2109.47 790.6 2118.8V2175H768V2119.2C768 2114 767.467 2109.8 766.4 2106.6C765.333 2103.4 763.733 2101.07 761.6 2099.6C759.6 2098 757.2 2097.2 754.4 2097.2C751.867 2097.2 749.333 2097.73 746.8 2098.8C744.4 2099.73 742.2 2101.2 740.2 2103.2C738.2 2105.2 736.6 2107.6 735.4 2110.4C734.2 2113.07 733.6 2116.13 733.6 2119.6V2175H711ZM845.2 2177.2C840 2177.2 835.067 2176.2 830.4 2174.2C825.867 2172.2 821.8 2169.13 818.2 2165C814.6 2160.87 811.733 2155.73 809.6 2149.6C807.6 2143.47 806.6 2136.27 806.6 2128C806.6 2120 807.6 2113 809.6 2107C811.6 2100.87 814.333 2095.8 817.8 2091.8C821.4 2087.67 825.533 2084.6 830.2 2082.6C834.867 2080.6 839.933 2079.6 845.4 2079.6C848.467 2079.6 851.4 2080 854.2 2080.8C857.133 2081.6 859.733 2082.8 862 2084.4C864.4 2085.87 866.333 2087.93 867.8 2090.6V2040.8H890H892V2042.6C891.2 2043.4 890.667 2044.27 890.4 2045.2C890.267 2046.13 890.2 2047.73 890.2 2050L890 2162.6C890 2164.73 890.133 2166.8 890.4 2168.8C890.667 2170.8 891.267 2172.87 892.2 2175H870C869.333 2173.53 868.867 2172.33 868.6 2171.4C868.333 2170.47 868.133 2169.53 868 2168.6C868 2167.53 868 2166.27 868 2164.8C866.4 2167.6 864.4 2169.93 862 2171.8C859.6 2173.67 857 2175 854.2 2175.8C851.4 2176.73 848.4 2177.2 845.2 2177.2ZM849 2159C852.067 2159 854.733 2158.4 857 2157.2C859.4 2155.87 861.333 2153.93 862.8 2151.4C864.4 2148.87 865.533 2145.67 866.2 2141.8C867 2137.8 867.4 2133.27 867.4 2128.2C867.4 2121.27 866.733 2115.53 865.4 2111C864.067 2106.33 862 2102.87 859.2 2100.6C856.4 2098.33 852.8 2097.2 848.4 2097.2C845.333 2097.2 842.533 2097.93 840 2099.4C837.467 2100.73 835.4 2102.73 833.8 2105.4C832.2 2108.07 830.933 2111.27 830 2115C829.2 2118.73 828.8 2122.93 828.8 2127.6C828.8 2134.13 829.667 2139.73 831.4 2144.4C833.267 2149.07 835.733 2152.67 838.8 2155.2C841.867 2157.73 845.267 2159 849 2159ZM1008.4 2175V2050.4H1040.6C1047.93 2050.4 1054.07 2051.07 1059 2052.4C1064.07 2053.73 1068.33 2055.67 1071.8 2058.2C1075.4 2060.73 1078.6 2063.87 1081.4 2067.6C1084.2 2071.33 1086.53 2075.6 1088.4 2080.4C1090.4 2085.07 1091.93 2090.13 1093 2095.6C1094.07 2101.07 1094.6 2107.07 1094.6 2113.6C1094.33 2123.07 1093.07 2131.6 1090.8 2139.2C1088.67 2146.67 1085.33 2153.07 1080.8 2158.4C1076.4 2163.73 1070.67 2167.87 1063.6 2170.8C1056.53 2173.6 1048.07 2175 1038.2 2175H1008.4ZM1030.4 2157.4H1037.6C1046.13 2157.4 1052.93 2155.6 1058 2152C1063.2 2148.27 1066.93 2143.13 1069.2 2136.6C1071.47 2130.07 1072.53 2122.47 1072.4 2113.8C1072.4 2104.6 1071.4 2096.6 1069.4 2089.8C1067.53 2083 1064.2 2077.73 1059.4 2074C1054.6 2070.27 1048.07 2068.4 1039.8 2068.4H1030.4V2157.4ZM1154.2 2177.2C1147.53 2177.2 1141.33 2176.13 1135.6 2174C1130 2171.87 1125.07 2168.8 1120.8 2164.8C1116.67 2160.67 1113.47 2155.6 1111.2 2149.6C1108.93 2143.6 1107.8 2136.8 1107.8 2129.2C1107.8 2121.47 1108.93 2114.53 1111.2 2108.4C1113.47 2102.27 1116.53 2097.07 1120.4 2092.8C1124.4 2088.53 1129.07 2085.33 1134.4 2083.2C1139.73 2080.93 1145.47 2079.8 1151.6 2079.8C1157.07 2079.8 1162.2 2080.73 1167 2082.6C1171.8 2084.47 1176 2087.33 1179.6 2091.2C1183.33 2094.93 1186.27 2099.67 1188.4 2105.4C1190.53 2111 1191.6 2117.53 1191.6 2125C1191.6 2126.33 1191.53 2127.93 1191.4 2129.8C1191.4 2131.67 1191.33 2133.27 1191.2 2134.6H1129.6C1129.87 2139 1130.73 2142.8 1132.2 2146C1133.67 2149.07 1135.6 2151.6 1138 2153.6C1140.4 2155.6 1143.07 2157.13 1146 2158.2C1148.93 2159.13 1152 2159.6 1155.2 2159.6C1158 2159.6 1160.67 2159.33 1163.2 2158.8C1165.87 2158.27 1168.33 2157.33 1170.6 2156C1173 2154.67 1175.27 2152.93 1177.4 2150.8L1189 2162C1186.07 2165.47 1182.73 2168.4 1179 2170.8C1175.4 2173.07 1171.47 2174.67 1167.2 2175.6C1163.07 2176.67 1158.73 2177.2 1154.2 2177.2ZM1130 2117.6H1169.6C1169.6 2114.4 1169.13 2111.53 1168.2 2109C1167.4 2106.47 1166.2 2104.33 1164.6 2102.6C1163 2100.87 1161 2099.6 1158.6 2098.8C1156.33 2097.87 1153.67 2097.4 1150.6 2097.4C1148.07 2097.4 1145.6 2097.8 1143.2 2098.6C1140.93 2099.27 1138.87 2100.47 1137 2102.2C1135.13 2103.93 1133.6 2106.07 1132.4 2108.6C1131.2 2111.13 1130.4 2114.13 1130 2117.6ZM1240.8 2175L1205.8 2082H1229.4L1253.2 2148.6H1250L1262.6 2118.2C1265.13 2111.8 1267.13 2105.53 1268.6 2099.4C1270.2 2093.27 1271.2 2087.47 1271.6 2082H1292.8C1292.13 2087.87 1290.67 2094.07 1288.4 2100.6C1286.27 2107.13 1283.8 2113.87 1281 2120.8L1258.6 2175H1240.8ZM1354.2 2177.2C1347.53 2177.2 1341.33 2176.13 1335.6 2174C1330 2171.87 1325.07 2168.8 1320.8 2164.8C1316.67 2160.67 1313.47 2155.6 1311.2 2149.6C1308.93 2143.6 1307.8 2136.8 1307.8 2129.2C1307.8 2121.47 1308.93 2114.53 1311.2 2108.4C1313.47 2102.27 1316.53 2097.07 1320.4 2092.8C1324.4 2088.53 1329.07 2085.33 1334.4 2083.2C1339.73 2080.93 1345.47 2079.8 1351.6 2079.8C1357.07 2079.8 1362.2 2080.73 1367 2082.6C1371.8 2084.47 1376 2087.33 1379.6 2091.2C1383.33 2094.93 1386.27 2099.67 1388.4 2105.4C1390.53 2111 1391.6 2117.53 1391.6 2125C1391.6 2126.33 1391.53 2127.93 1391.4 2129.8C1391.4 2131.67 1391.33 2133.27 1391.2 2134.6H1329.6C1329.87 2139 1330.73 2142.8 1332.2 2146C1333.67 2149.07 1335.6 2151.6 1338 2153.6C1340.4 2155.6 1343.07 2157.13 1346 2158.2C1348.93 2159.13 1352 2159.6 1355.2 2159.6C1358 2159.6 1360.67 2159.33 1363.2 2158.8C1365.87 2158.27 1368.33 2157.33 1370.6 2156C1373 2154.67 1375.27 2152.93 1377.4 2150.8L1389 2162C1386.07 2165.47 1382.73 2168.4 1379 2170.8C1375.4 2173.07 1371.47 2174.67 1367.2 2175.6C1363.07 2176.67 1358.73 2177.2 1354.2 2177.2ZM1330 2117.6H1369.6C1369.6 2114.4 1369.13 2111.53 1368.2 2109C1367.4 2106.47 1366.2 2104.33 1364.6 2102.6C1363 2100.87 1361 2099.6 1358.6 2098.8C1356.33 2097.87 1353.67 2097.4 1350.6 2097.4C1348.07 2097.4 1345.6 2097.8 1343.2 2098.6C1340.93 2099.27 1338.87 2100.47 1337 2102.2C1335.13 2103.93 1333.6 2106.07 1332.4 2108.6C1331.2 2111.13 1330.4 2114.13 1330 2117.6ZM1412.6 2175V2157.2H1438.8V2058.6H1413.8V2040.8H1461.6V2157.2H1487.6V2175H1412.6ZM1549.8 2177C1541.53 2177 1534 2175 1527.2 2171C1520.53 2166.87 1515.27 2161.13 1511.4 2153.8C1507.53 2146.47 1505.6 2138 1505.6 2128.4C1505.6 2119.2 1507.53 2110.93 1511.4 2103.6C1515.27 2096.27 1520.53 2090.47 1527.2 2086.2C1534 2081.93 1541.53 2079.8 1549.8 2079.8C1558.2 2079.8 1565.73 2081.93 1572.4 2086.2C1579.2 2090.47 1584.53 2096.27 1588.4 2103.6C1592.4 2110.93 1594.4 2119.2 1594.4 2128.4C1594.4 2138 1592.4 2146.47 1588.4 2153.8C1584.53 2161.13 1579.2 2166.87 1572.4 2171C1565.73 2175 1558.2 2177 1549.8 2177ZM1549.8 2159C1554.2 2159 1558 2157.73 1561.2 2155.2C1564.4 2152.53 1566.93 2148.93 1568.8 2144.4C1570.8 2139.73 1571.8 2134.4 1571.8 2128.4C1571.8 2122.13 1570.8 2116.73 1568.8 2112.2C1566.93 2107.67 1564.4 2104.2 1561.2 2101.8C1558 2099.27 1554.2 2098 1549.8 2098C1545.8 2098 1542.13 2099.27 1538.8 2101.8C1535.6 2104.2 1533 2107.67 1531 2112.2C1529.13 2116.73 1528.2 2122.13 1528.2 2128.4C1528.2 2134.4 1529.13 2139.73 1531 2144.4C1532.87 2148.93 1535.4 2152.53 1538.6 2155.2C1541.93 2157.73 1545.67 2159 1549.8 2159ZM1609.6 2208.4L1609.4 2081.8H1631.8V2094.8C1633.93 2091.33 1636.27 2088.53 1638.8 2086.4C1641.47 2084.13 1644.4 2082.47 1647.6 2081.4C1650.93 2080.33 1654.4 2079.8 1658 2079.8C1663.07 2079.8 1667.8 2080.87 1672.2 2083C1676.73 2085 1680.67 2088.07 1684 2092.2C1687.33 2096.33 1689.93 2101.47 1691.8 2107.6C1693.8 2113.6 1694.8 2120.67 1694.8 2128.8C1694.8 2136.93 1693.8 2144.07 1691.8 2150.2C1689.8 2156.33 1687 2161.4 1683.4 2165.4C1679.93 2169.4 1675.93 2172.4 1671.4 2174.4C1667 2176.4 1662.4 2177.4 1657.6 2177.4C1654.27 2177.4 1651 2177 1647.8 2176.2C1644.73 2175.4 1641.87 2174.27 1639.2 2172.8C1636.53 2171.2 1634.33 2169.27 1632.6 2167V2208.4H1609.6ZM1651.4 2159.8C1654.33 2159.8 1657.07 2159.27 1659.6 2158.2C1662.13 2157.13 1664.33 2155.4 1666.2 2153C1668.2 2150.47 1669.73 2147.13 1670.8 2143C1671.87 2138.87 1672.4 2133.73 1672.4 2127.6C1672.4 2121.47 1671.6 2116.2 1670 2111.8C1668.4 2107.27 1666.13 2103.8 1663.2 2101.4C1660.27 2099 1656.73 2097.73 1652.6 2097.6C1649.4 2097.47 1646.53 2098 1644 2099.2C1641.6 2100.4 1639.53 2102.33 1637.8 2105C1636.07 2107.67 1634.73 2111.07 1633.8 2115.2C1632.87 2119.33 1632.4 2124.33 1632.4 2130.2C1632.53 2134.2 1632.87 2137.8 1633.4 2141C1633.93 2144.2 1634.67 2147 1635.6 2149.4C1636.67 2151.67 1637.93 2153.6 1639.4 2155.2C1640.87 2156.67 1642.6 2157.8 1644.6 2158.6C1646.6 2159.4 1648.87 2159.8 1651.4 2159.8ZM1754.2 2177.2C1747.53 2177.2 1741.33 2176.13 1735.6 2174C1730 2171.87 1725.07 2168.8 1720.8 2164.8C1716.67 2160.67 1713.47 2155.6 1711.2 2149.6C1708.93 2143.6 1707.8 2136.8 1707.8 2129.2C1707.8 2121.47 1708.93 2114.53 1711.2 2108.4C1713.47 2102.27 1716.53 2097.07 1720.4 2092.8C1724.4 2088.53 1729.07 2085.33 1734.4 2083.2C1739.73 2080.93 1745.47 2079.8 1751.6 2079.8C1757.07 2079.8 1762.2 2080.73 1767 2082.6C1771.8 2084.47 1776 2087.33 1779.6 2091.2C1783.33 2094.93 1786.27 2099.67 1788.4 2105.4C1790.53 2111 1791.6 2117.53 1791.6 2125C1791.6 2126.33 1791.53 2127.93 1791.4 2129.8C1791.4 2131.67 1791.33 2133.27 1791.2 2134.6H1729.6C1729.87 2139 1730.73 2142.8 1732.2 2146C1733.67 2149.07 1735.6 2151.6 1738 2153.6C1740.4 2155.6 1743.07 2157.13 1746 2158.2C1748.93 2159.13 1752 2159.6 1755.2 2159.6C1758 2159.6 1760.67 2159.33 1763.2 2158.8C1765.87 2158.27 1768.33 2157.33 1770.6 2156C1773 2154.67 1775.27 2152.93 1777.4 2150.8L1789 2162C1786.07 2165.47 1782.73 2168.4 1779 2170.8C1775.4 2173.07 1771.47 2174.67 1767.2 2175.6C1763.07 2176.67 1758.73 2177.2 1754.2 2177.2ZM1730 2117.6H1769.6C1769.6 2114.4 1769.13 2111.53 1768.2 2109C1767.4 2106.47 1766.2 2104.33 1764.6 2102.6C1763 2100.87 1761 2099.6 1758.6 2098.8C1756.33 2097.87 1753.67 2097.4 1750.6 2097.4C1748.07 2097.4 1745.6 2097.8 1743.2 2098.6C1740.93 2099.27 1738.87 2100.47 1737 2102.2C1735.13 2103.93 1733.6 2106.07 1732.4 2108.6C1731.2 2111.13 1730.4 2114.13 1730 2117.6ZM1817.8 2082H1841.2L1841 2108L1838.4 2106.4C1838.93 2102.27 1840.07 2098.6 1841.8 2095.4C1843.67 2092.2 1845.93 2089.4 1848.6 2087C1851.4 2084.6 1854.4 2082.8 1857.6 2081.6C1860.93 2080.4 1864.33 2079.8 1867.8 2079.8C1873 2079.8 1877.67 2080.67 1881.8 2082.4C1886.07 2084 1890 2086.67 1893.6 2090.4L1884 2109.4L1883.4 2111L1881.6 2110.2C1881.2 2109.13 1880.8 2108.07 1880.4 2107C1880 2105.8 1879 2104.47 1877.4 2103C1875.53 2101.53 1873.53 2100.4 1871.4 2099.6C1869.4 2098.8 1867.2 2098.4 1864.8 2098.4C1861.6 2098.4 1858.53 2098.93 1855.6 2100C1852.67 2101.07 1850.07 2102.73 1847.8 2105C1845.67 2107.27 1843.93 2110.2 1842.6 2113.8C1841.4 2117.27 1840.8 2121.4 1840.8 2126.2V2175H1817.8V2082Z" fill="white"/>
</g>
</g>
</g>
</g>
</g>
<defs>
<clipPath id="clip0_1_36">
<rect width="2000" height="2213" fill="white"/>
</clipPath>
<clipPath id="clip1_1_36">
<rect width="1994.84" height="2213" fill="white" transform="translate(2.58105)"/>
</clipPath>
<clipPath id="clip2_1_36">
<rect width="1994.84" height="2213" fill="white" transform="translate(2.58105)"/>
</clipPath>
<clipPath id="clip3_1_36">
<rect width="1994.84" height="2213" fill="white" transform="translate(2.58105)"/>
</clipPath>
<clipPath id="clip4_1_36">
<rect width="1994.84" height="2213" fill="white" transform="translate(2.58105)"/>
</clipPath>
<clipPath id="clip5_1_36">
<rect width="1994.84" height="1994.84" fill="white" transform="translate(2.58105)"/>
</clipPath>
<clipPath id="clip6_1_36">
<rect width="666.021" height="705.281" fill="white" transform="translate(666.988 644.777)"/>
</clipPath>
<clipPath id="clip7_1_36">
<rect width="666.021" height="705.281" fill="white" transform="translate(666.988 644.777)"/>
</clipPath>
</defs>
</svg>
